<svg xmlns="http://www.w3.org/2000/svg" width="26.872" height="27" viewBox="0 0 26.872 27">
  <path id="icone-contact" d="M.057,27l1.9-6.933a13.378,13.378,0,1,1,5.2,5.073Zm7.422-4.283a11.094,11.094,0,1,0-3.086-3l-1.124,4.1Zm12.81-6.147c-.083-.139-.306-.223-.641-.39s-1.978-.977-2.285-1.088-.529-.168-.753.168-.864,1.088-1.059,1.311-.39.251-.725.083a9.124,9.124,0,0,1-2.689-1.659,10.064,10.064,0,0,1-1.86-2.316c-.195-.334-.02-.515.146-.682.151-.15.334-.39.5-.586a2.193,2.193,0,0,0,.338-.557.615.615,0,0,0-.028-.586c-.084-.167-.753-1.812-1.031-2.482-.272-.651-.548-.564-.753-.574L8.812,7.2a1.225,1.225,0,0,0-.891.418,3.751,3.751,0,0,0-1.17,2.789,6.506,6.506,0,0,0,1.365,3.458,14.905,14.905,0,0,0,5.71,5.048,19.343,19.343,0,0,0,1.906.7,4.6,4.6,0,0,0,2.106.133,3.443,3.443,0,0,0,2.257-1.59A2.785,2.785,0,0,0,20.289,16.57Z" transform="translate(-0.057)"/>
</svg>
