<svg id="instagram" xmlns="http://www.w3.org/2000/svg" width="37.661" height="37.661" viewBox="0 0 37.661 37.661">
  <path id="Tracé_74" data-name="Tracé 74" d="M27.268,0H10.393A10.4,10.4,0,0,0,0,10.393V27.268A10.4,10.4,0,0,0,10.393,37.661H27.268A10.405,10.405,0,0,0,37.661,27.268V10.393A10.4,10.4,0,0,0,27.268,0ZM34.32,27.268a7.06,7.06,0,0,1-7.052,7.052H10.393a7.059,7.059,0,0,1-7.051-7.052V10.393a7.06,7.06,0,0,1,7.051-7.052H27.268a7.06,7.06,0,0,1,7.052,7.052V27.268Z"/>
  <path id="Tracé_75" data-name="Tracé 75" d="M50.672,40.97a9.7,9.7,0,1,0,9.7,9.7A9.715,9.715,0,0,0,50.672,40.97Zm0,16.067a6.363,6.363,0,1,1,6.363-6.362A6.37,6.37,0,0,1,50.672,57.037Z" transform="translate(-31.842 -31.843)"/>
  <path id="Tracé_76" data-name="Tracé 76" d="M121.371,28.251a2.449,2.449,0,1,0,1.733.717A2.46,2.46,0,0,0,121.371,28.251Z" transform="translate(-92.429 -21.958)"/>
</svg>
