<svg xmlns="http://www.w3.org/2000/svg" width="544" height="426.09" viewBox="0 0 544 426.09">
  <g id="logo-hero" transform="translate(-460.566 -166.871)">
    <path id="Tracé_23" data-name="Tracé 23" d="M991.2,410.922c3.623,3.167,7.222,6.361,10.857,9.513.779.676,1.672,1.22,2.512,1.825-2.489-4.357-5.225-8.44-7.734-12.66a27.9,27.9,0,0,0-13.239-11.347c-14.622-6.481-29.761-7.239-45.231-4.108-4.453.9-8.839,2.133-13.329,3.231l4.473-4.325-.4-.7a24.613,24.613,0,0,0-2.587.582c-.915.306-1.78.762-2.668,1.152l-.12-.224,7.842-7.122-.694-1.419,4.219-4.807-.349-.441-5.389,2.668c2.538-2.76,4.83-5.26,7.136-7.747a1.734,1.734,0,0,1,.728-.5l5.062-3.3c-1.47.36-2.97.6-4.806.963l1.1-2.334-.216-.165-2.885,2.011-.326-.421c2.986-2.566,5.725-5.294,6.474-9.532l-6.423,5.4c2.237-4,5.382-7.368,6.748-11.967l-5.13,4.621-.284-.3a47.117,47.117,0,0,0,4.956-12.308c-2.261.449-1.835,2.7-3.182,3.54l5.464-17.307-.6-.412A4.934,4.934,0,0,0,942.064,334c-1.9,3.287-3.745,6.6-5.607,9.911l-.522-.175c3.558-7.508,3.837-15.7,5.145-23.827a1.759,1.759,0,0,0-1.186.682c-.516,1.027-.894,2.122-1.336,3.187q-1.6,3.845-3.2,7.687c-.125-2.417.01-4.76.085-7.106a59.324,59.324,0,0,0-1.752-16.245,9.262,9.262,0,0,0-.914-1.836l-.735.161c-.439,2.986.893,5.98.418,9.055-.858-1.545-.444-3.61-2.413-4.953-.735,3.683.329,7.055-.026,10.4a15.393,15.393,0,0,1-.556-1.551c-.182-.508-.418-1-.63-1.493l-.433.108c.219,6.887,1.134,13.776.224,20.67a2.019,2.019,0,0,1-.306-.689c-1.359-3.655-2.7-7.318-4.112-10.952a6.21,6.21,0,0,0-1.2-1.47l-.584.258c-.315,3.894,1.193,7.6,1.54,11.507l-2.485-4.632-.7.251q1.3,7.228,2.595,14.457a7.757,7.757,0,0,1-.72-1.486c-.862-2.029-1.667-4.086-2.639-6.061-.321-.653-1.08-1.091-1.6-1.591.967-7.925,2.061-15.973,2.9-24.047.632-6.089.931-12.211-.171-18.3-.931-5.145-3.1-9.333-8.548-10.953a18.009,18.009,0,0,0-8.62-.69c-3.049.589-6.087,1.261-9.092,2.048a128.017,128.017,0,0,1-29.243,4.391,222.736,222.736,0,0,1-39.478-2.033c-14.523-2.223-28.264-6.883-41.616-13.021-14.894-6.848-28.782-15.04-40.448-26.711a74.714,74.714,0,0,0-6.9-6.032,5.222,5.222,0,0,0-6.816.077,47.931,47.931,0,0,0-3.686,3.089c-3.988,3.665-7.767,7.581-11.951,11-8.424,6.893-17.864,12.227-27.591,17.049a180.279,180.279,0,0,1-34.117,13.331c-8.55,2.25-17.285,2.873-26.059,3.355-11.546.634-23.092.842-34.533-1.051-7.955-1.316-15.834-3.093-23.739-4.7-4.508-.919-8.993-1.572-13.526-.126a11.174,11.174,0,0,0-6.491,5.255,24.667,24.667,0,0,0-3.026,11.523c-.53,11.332.705,22.541,2.556,33.692,1.968,11.852,5.361,23.339,9.1,34.729,1.5,4.564,3.053,9.111,4.585,13.673-1.189,1.387-2.644,11.025-3.022,19.094-1.015-7.987-2.527-15.956-.554-24.058l-.457-.167-2.4,3.472-.353-.144q.522-4.706,1.044-9.411l-.627-.242c-2.146,2.284-3.416,5.138-4.686,8.013.267-4.535.611-9.031,1.012-13.522a3.883,3.883,0,0,1,.646-1.284c.229-.422.471-.839.73-1.3l-1.407-.416v-5.3l-.462-.085c-.46,1.144-.921,2.289-1.409,3.5V349.925l-.386-.127-3.225,9.318-.122-.034q1.444-7.2,2.888-14.395l-.484-.193-4.544,10.53c.094-.792.113-1.229.2-1.653.891-4.27,1.81-8.534,2.676-12.809a14.224,14.224,0,0,0,.018-2.367c-2.456,1.773-2.7,4.332-4.1,6.625l2.245-12.493-.573-.166c-1.789,2.117-2.424,4.853-3.641,7.292a2.893,2.893,0,0,1,.053-.887c.642-3.4,1.316-6.792,1.909-10.2a15.076,15.076,0,0,0,.021-2.55l-.568-.233a6.654,6.654,0,0,0-1.3,1.532c-1.208,2.91-2.319,5.861-3.464,8.8-.128.328-.251.657-.377.985l-.471-.08q.346-9.717.692-19.433l-.543-.068-1.7,6.286c-.034-3.607.19-7.155.366-10.7a14.043,14.043,0,0,0-.2-2.073l-.582-.079c-1.382,1.2-1.091,3.227-1.983,4.867-.325-3.2.892-6.172.128-9.26a3.043,3.043,0,0,0-1.214,1.563,55.565,55.565,0,0,0-1.83,15.775c.055,2.6.237,5.189.362,7.783a1.047,1.047,0,0,1-.584-.62q-2.061-5-4.121-10.009c-.26-.631-.428-1.471-1.465-.741,1.655,8.847,1.894,18.037,6.526,26.178a4.4,4.4,0,0,1-1.078-1.321c-2.1-3.651-4.174-7.315-6.3-10.95-.229-.392-.732-.625-1.109-.932l-.441.408c2.012,6.75,3.749,13.594,7.054,19.924-.89-1.006-1.534-2.135-2.293-3.181-.7-.97-.623-2.6-2.564-3.057.8,3.947,2.354,7.267,3.681,10.79l-3.156-3.653-.644.49,4.495,8.045-1.407,1.661-3.278-3.08c.916,4.656,4.433,7.671,5.7,11.805a1.343,1.343,0,0,0-.491.012,6.475,6.475,0,0,0-.923.595l6.114,6.858-2.854-1.206-.295.363,4.837,5.517c-1.156-.1-2.172-.225-3.154-.292a2.284,2.284,0,0,1,.813,1.215l.018,0,6.254,5.85-2.828-.307-.346.618,6,5.632c-4.453-1.18-8.639-2.393-12.875-3.394-13.177-3.112-26.34-3.25-39.447.455-10.165,2.873-18.722,7.821-23.7,17.719-1.626,3.231-3.846,6.163-5.795,9.232l.357.355,13.75-11.89L464.3,426.423l.406.329,11.022-9.648c.065.991.125,1.9.184,2.812l.537.151,6.224-7.52.344.261c-2.221,3.941-4.168,7.974-4.376,12.674a60.934,60.934,0,0,1,8.65-9.465c.143.9.253,1.6.434,2.736l9.571-10.7a2.954,2.954,0,0,1-.765,1.5,32.138,32.138,0,0,0-6.163,11.6,16.713,16.713,0,0,0-.275,2.645l.367.052,5.614-6.553.281,2.764.5.1,11.176-12.675.353.309a9.325,9.325,0,0,0-.7.921c-2.82,4.785-5.658,9.561-8.412,14.384a8.194,8.194,0,0,0-.519,2.4l.578.255a89.613,89.613,0,0,1,12.6-13.706,5.9,5.9,0,0,1-.614,1.314c-1.329,2.47-2.695,4.923-3.942,7.434a6.989,6.989,0,0,0-.312,2.151l.6.4c1.07-.817,2.191-1.575,3.2-2.466,1.049-.93,1.987-1.985,2.97-2.988q1.412-1.441,2.818-2.888c-4.212,7.39-5.148,9.684-4.51,11.958l10.311-9.8-1.281,4.124.542.273c4.923-4.766,8.745-10.851,15.618-13.282a10.122,10.122,0,0,1-1.472,1.427,38.28,38.28,0,0,0-10.5,13.388,5.512,5.512,0,0,1-2.764,2.754c-5.934,2.963-11.849,6.027-16.7,10.638a98.818,98.818,0,0,0-19.026,25.613c-.692,1.3-1.192,2.708-1.78,4.066l.223.108,20.267-22.216.384.252a16.518,16.518,0,0,1-1.111,1.792c-1.6,1.994-3.318,3.9-4.858,5.938-4.23,5.6-8.507,11.186-11.292,17.714-.2.465-.367.941-.617,1.588L508.22,449.3l.441.244q-1.536,4.887-3.072,9.774a3.227,3.227,0,0,0,1.012-1.142c2.323-3.921,4.631-7.851,6.964-11.766a19.244,19.244,0,0,1,4.306-5.284c-1.093,3.7-2.175,7.358-3.256,11.019l.5.194a27.688,27.688,0,0,1,6.071-8.39c-.061.61-.1.97-.133,1.329,1.375-1.61,2.368-3.4,3.555-5.059,1.206-1.682,2.6-3.227,3.918-4.832l.494.279L523.8,449.9l.388.175,7.6-12.181.426.192v6.091c1.16-3.414,1.326-7.112,3.361-9.929-.326,4.359-.665,8.89-1,13.421l.494.078a21.392,21.392,0,0,1,3.933-9.7l-.34,3.137.41.1c1.586-2.954,3.132-5.93,4.78-8.848a19.559,19.559,0,0,1,1.958-2.474l.476.275a43.045,43.045,0,0,0-4.908,16.167c3.523-5.064,5.3-10.725,9.112-15.2l-1.273,7.208.411.14,4.238-6.644.222.071q-1.082,5.767-2.165,11.534l.381.117c1.076-1.741,2.164-3.476,3.225-5.226,1.82-3,3.595-6.029,5.457-9a12.84,12.84,0,0,1,1.858-1.874c.423.874.7,1.392.93,1.932,1.033,2.447,1.9,4.977,3.105,7.335,3.581,7.008,7.268,13.962,10.959,20.913,6.192,11.659,12.7,23.131,20.89,33.539,3.656,4.646,7.5,9.148,11.269,13.733-2.784,3.259-3.008,4.347-1.342,7.466,1.654,3.095,3.312,6.189,5.044,9.24,2.246,3.958,4.567,7.873,6.964,11.992-3.038,1.109-5.976,2.244-8.955,3.26-15.769,5.379-31.286,11.354-46.014,19.222a160.087,160.087,0,0,0-20.917,13.6c-.6.455-1.6.815-.966,2.343a151.557,151.557,0,0,1,26.12-9.723c8.181-2.338,24.845-4.706,27.735-3.867a149.528,149.528,0,0,0-23.123,9.116c-13.869,6.656-26.234,15.294-36.118,27.222a26.715,26.715,0,0,0-2.17,3.058c-.459.746-.643,1.581.326,2.213a67.885,67.885,0,0,1,6.076-3.929c6.25-3.187,12.468-6.478,18.909-9.24,23.7-10.164,48.674-15.374,74.116-18.693a127.184,127.184,0,0,0,21.329-4.4A20.345,20.345,0,0,0,667.3,557.4c2.2-2.72,2.6-5.523.653-8.405-3.659-5.415-6.784-11.218-11.416-15.974a1.344,1.344,0,0,1,.348-.212c1.648-.415,3.3-.819,5.077-1.256.322.364.638.752.985,1.11a396.185,396.185,0,0,0,50.19,44.216c4.973,3.653,10.015,7.2,15.761,9.609,5.464,2.292,10.56,1.871,15.308-1.769,4.418-3.386,8.977-6.606,13.219-10.2,17.769-15.053,34.6-31.119,51.457-47.592l8.44,1.746c-4.5,5.143-7.893,10.776-11.382,16.323a5.709,5.709,0,0,0,.037,6.632,17.811,17.811,0,0,0,9,6.962c6.238,2.308,12.753,3.487,19.286,4.563,11.076,1.824,22.223,3.291,33.214,5.527,15.189,3.091,30.158,7.122,44.391,13.432,8.7,3.858,17.517,7.532,25.221,13.3a3.75,3.75,0,0,0,.908.244,4.922,4.922,0,0,0,.043-1.816,7.866,7.866,0,0,0-1.477-2.417c-3.979-4.165-7.779-8.546-12.085-12.349-11.125-9.828-24.294-16.219-37.963-21.65-3.233-1.285-6.564-2.325-10.078-3.558a7.119,7.119,0,0,1,.776-.091c1.354.034,2.713.014,4.062.128a139.06,139.06,0,0,1,39.494,9.46c2.841,1.12,5.586,2.482,8.4,3.67a4.217,4.217,0,0,0,1.52.026c.033-.174.066-.347.1-.52-.511-.46-.99-.96-1.536-1.375a162.049,162.049,0,0,0-25.867-16.143C889.3,542,874.6,536.559,859.739,531.495c-2.069-.705-4.09-1.549-6.3-2.391,1.617-1.992,3.069-3.778,4.518-5.568,4.83-5.964,9.686-11.906,14.471-17.906,1.543-1.934,1.379-3.376-.547-4.924a21.939,21.939,0,0,0-3.843-2.317c-1.4-.714-2.886-1.273-4.346-1.9,16.477-20.838,28.122-44.341,39.622-68.312a22.631,22.631,0,0,1,2.07,2.483c2.072,3.375,4.056,6.8,6.1,10.2.682,1.134,1.433,2.225,2.153,3.336l.338-.152c-.688-3.667-1.376-7.333-2.144-11.427l3.878,5.941.378-.185q-.666-3.711-1.331-7.422c4.267,4.7,6.111,10.768,9.78,16.133a43.3,43.3,0,0,0-4.9-16.238l.639-.3,6.1,10.84.344-.123c-.2-1.284-.408-2.569-.665-4.185,2.537,3.708,4.317,7.358,4.776,11.586l.48-.122q-.419-6.455-.838-12.909a30.343,30.343,0,0,1,1.4,4.194c.375,1.44.663,2.9.988,4.355l.294-.066v-6.534l.287-.13,8.266,13.209.391-.182-5.191-14.17.677-.354,6.6,9.537v-1.4l.438-.226,6.839,9.562-3.354-11.549.34-.247c1.378,2,2.824,3.946,4.113,6,1.278,2.033,2.35,4.193,3.6,6.247s2.584,4.025,3.882,6.034l.22-.121-2.995-9.661.477-.158,19.9,21.776a33.566,33.566,0,0,0-2.473-5.544,124.465,124.465,0,0,0-14.5-19.917,17.735,17.735,0,0,1-1.361-2.04l.377-.235,20.56,22.544c-.27-.783-.389-1.2-.554-1.595-3.949-9.438-10.192-17.359-16.775-25.014-5.544-6.447-12.9-10.42-20.34-14.239a4.419,4.419,0,0,1-1.833-1.811,40.348,40.348,0,0,0-9.817-12.814c-.941-.805-1.856-1.638-2.783-2.459a2.243,2.243,0,0,1,1.611.319,52.479,52.479,0,0,1,5.93,4.324c2.416,2.25,4.537,4.815,6.8,7.231a13.821,13.821,0,0,0,1.2,1.028l.444-.292c-.388-1.239-.775-2.478-1.259-4.024l10.963,10.393c0-4.653-2.311-8.152-4.431-11.811.489.242.717.7,1.06,1.047,1.766,1.78,3.526,3.569,5.37,5.267a9.04,9.04,0,0,0,2.074,1.094l.483-.455c-.585-3.9-3.14-6.966-4.816-10.429,5.006,4.072,9.028,9.06,13.191,14.223.761-2.537-.939-5.664-9.9-19.289,3.463,3.736,6.775,7.6,10.1,11.459.456.529.978,1,1.47,1.5l.5-.213v-3.079l6.554,7.569.428-.269c-.561-5.89-3.854-10.534-7.085-15.277l8.755,9.87c.2-1.217.313-1.938.506-3.137l9.422,10.68c-.319-4.984-2.5-8.974-4.452-13.1,1.637,1.764,3.084,3.652,4.568,5.512a15.813,15.813,0,0,0,1.341,1.335l.459-.254v-2.885c1.572,1.424,2.863,2.6,4.164,3.77,1.27,1.138,2.534,2.284,3.832,3.391,1.28,1.092,2.6,2.137,3.9,3.2l.493-.45L989.759,409.9c-2.172-1.689-5.08-2.556-5.95-5.694l5.972,5.672C990.254,410.225,990.757,410.538,991.2,410.922ZM917.83,340.416c.028-.093.072-.182.265-.66.992,4.51,1.893,8.6,2.793,12.7l-.276.094a20.723,20.723,0,0,0-1.837-4.21C916.937,345.8,916.981,343.193,917.83,340.416Zm-1.531,6.043.733.037q1.556,8.053,3.111,16.105l-.46.1c-.393-1.543-.729-3.1-1.193-4.626-.683-2.24-1.644-4.413-2.128-6.691A24.218,24.218,0,0,1,916.3,346.459Zm-.913,13.611c-.443-.418-1.051-.657-1.3-.55q.308-2.268.616-4.536l.391.043C915.186,356.69,915.284,358.353,915.386,360.07ZM907.823,379l1.249-3.627.376-.009q.347,3.067.7,6.134l-.411.147Zm-1.332,25.457c-.546-4.9-1.192-9.8-1.579-14.712a14.487,14.487,0,0,1,.723-4.788c.453-1.662,1.2-3.244,1.819-4.86C909.4,388.391,908.3,396.462,906.491,404.453Zm3.56-31.9c1.189-4.161,2.352-8.249,3.537-12.332a2.148,2.148,0,0,1,.461-.63c-.008,2.282-.156,4.557-.012,6.812.36,5.6.865,11.2,1.29,16.8a12.005,12.005,0,0,1-.116,2.587A23.068,23.068,0,0,0,910.051,372.552ZM555.2,332.525c-1.462-9.86-2.246-19.757-.492-29.657,1.214-6.849,3.809-9.029,10.8-8.821,5.254.156,10.507.706,15.735,1.3,17.753,2.029,35.541,2.711,53.314.67a156.131,156.131,0,0,0,76.9-30.653c4.521-3.381,8.479-7.51,12.741-11.242a68.294,68.294,0,0,1,6.178-5.019c3.108-2.137,5.567-1.993,8.578.3a33.753,33.753,0,0,1,4.16,3.688c10.99,11.683,24.287,19.851,38.921,26.164,12.084,5.212,24.624,8.693,37.451,11.466,19.6,4.237,39.371,4.846,59.283,3.687,7.562-.44,15.129-.933,22.7-1.03,7.989-.1,11.094,2.8,12.406,10.66a97.774,97.774,0,0,1,.712,23.852c-1.593,20.329-7.691,39.474-15.369,58.192-6.52,15.9-14.717,30.949-23.26,45.822-10.568,18.4-21.424,36.615-34.023,53.727-.677.919-1.361,1.833-1.929,2.6-5.059-1.055-9.877-2.31-14.774-3.023-8.234-1.2-16.5-2.246-24.786-3.013a586.215,586.215,0,0,0-69.758-2.443,328.672,328.672,0,0,0-36.276,2.985c-16,2.215-31.94,4.753-47.616,8.723-3.1.785-6.167,1.7-9.369,2.593-3.3-4.023-6.643-8.025-9.913-12.081-14.445-17.915-27.752-36.6-38.495-57.016A413.318,413.318,0,0,1,562.93,363.1,180.471,180.471,0,0,1,555.2,332.525Zm337.9,79.3,4.56,1.739-.1.343-5.778.4Zm-5.553,9.9,2.331-4.067c2.182.656,4.559.676,6.289,2.822Zm4.981,2.956c-10.991,26.146-25.6,48.922-49.637,64.5,16.161-20.7,29.846-43.028,43.674-65.649Zm-317.4-4.036c-1.831-.368-3.719-.456-5.88-.7,2.62-2.185,5.558-2.47,8.768-2.726a515.411,515.411,0,0,0,51.207,77.521c-12.116-9.2-24.573-17.97-33.952-30.28-9.293-12.2-16.43-25.561-22.721-39.844,1.634-.517,2.824-.98,4.057-1.259,1.2-.27,2.44-.351,3.987-.558C579.018,420.841,576.938,421.016,575.134,420.654Zm1.136-6.454-8.976-.807,7.228-2.371Zm-3.391-6.348-5.367-.617-.151-.214,4.264-1.648Zm-2.986-5.9-2.568-.394-.062-.267,2-.746Zm-93.777,7.652-.261-.3,5.649-4.971C480.647,407.163,477.748,407.662,476.117,409.606Zm62.1,4.821-.809,2.764.409.3,8.525-6.673.41.389a3.262,3.262,0,0,1-.223.9c-1.4,2.378-2.9,4.463-5.815,5.46-3.773,1.289-7.344,3.171-11,4.8-.482.214-.964.424-1.447.637C531,419.5,533.949,416.318,538.215,414.427Zm-25.121,24.741-.506-.4,2.142-2.575.4.311Zm93.613,57.773c-12.221-13.331-21.944-28.363-30.084-44.453-3.619-7.152-7.146-14.351-10.638-21.566-1.353-2.795-2.439-5.717-3.748-8.534-.892-1.92-1.938-2.088-3.208-.4-1.532,2.036-2.854,4.234-4.2,6.406-1.318,2.13-2.545,4.316-3.819,6.473-.038.065-.165.076-.289.129.575-4.718,2.229-9.267,2.324-14.029l-.518-.4a11.06,11.06,0,0,0-2.131.991,21.224,21.224,0,0,0-5.686,7.3c-1.417,2.641-2.752,5.325-4.124,7.989l-.466-.145c.625-2.2,1.16-4.428,1.9-6.587.569-1.652,1.419-3.206,2.1-4.822a3.563,3.563,0,0,0,.247-1.865c-5.682,2.691-8.4,7.795-11.174,13.034.055-1.085.064-2.175.175-3.254a33.526,33.526,0,0,1,.519-3.418c.231-1.107.577-2.191.974-3.657-.691.266-1.2.316-1.477.594a32.17,32.17,0,0,0-3.789,4.026c-2.076,2.936-3.935,6.027-5.957,9.166.782-3.871,3.434-7.056,3.56-10.984l-.442-.344a7.146,7.146,0,0,0-1.461.994c-3.789,4.269-7.543,8.569-11.538,13.123l2.827-8.236-.559-.349a7.1,7.1,0,0,0-1.677,1.256c-1.79,2.464-3.559,4.949-5.2,7.513-1.26,1.971-2.315,4.073-3.574,6.063-.075-2.127,1.87-3.956.717-6.581-2.646,1.836-4.036,4.525-6.134,6.507-2.147,2.031-4.232,4.136-6.231,6.312s-3.845,4.47-5.978,6.6c.479-.887.923-1.8,1.442-2.659a122.251,122.251,0,0,1,14.11-19.074c4.9-5.4,10.973-9.233,17.47-12.333,7.911-3.773,15.933-7.324,23.98-10.8a19.342,19.342,0,0,1,13.841-.571,9.627,9.627,0,0,0,2.064.192l.2-.453a4.994,4.994,0,0,0-.816-1.118c-2.135-1.657-4.229-3.386-6.486-4.864a6.27,6.27,0,0,0-6.74-.283c-2.3,1.294-4.413,2.909-6.6,4.4-.359.244-.666.566-1.274,1.091,1.521-4.017,5.017-6.532,5.86-10.6-9.135,1.6-16.051,6.533-21.656,13.63a32.536,32.536,0,0,1,6.8-10.491c1.544-1.571,3.245-2.987,4.852-4.5.48-.452.881-.989,1.319-1.487l-.26-.592a8.647,8.647,0,0,0-2.232.027,27.149,27.149,0,0,0-11.026,6.547c-4.06,3.724-7.889,7.7-11.831,11.554-.844.825-1.744,1.594-2.618,2.389l-.347-.246c.665-1.367,1.25-2.779,2.007-4.093a65.776,65.776,0,0,1,11.037-14.776,22.525,22.525,0,0,0,2.177-2.487,3.306,3.306,0,0,0,.569-1.665c-11.62,2.692-19.521,10.323-26.219,19.58l-.361-.251c1.21-2.287,2.356-4.611,3.647-6.851a69.976,69.976,0,0,1,4.241-6.742c1.561-2.107,3.427-3.99,5.159-5.971l-.228-.563a5.549,5.549,0,0,0-1.962.483,90.056,90.056,0,0,0-8.7,6.643c-3.477,3.239-6.6,6.862-9.868,10.323-.231.244-.436.512-.654.77l-.442-.208a35.2,35.2,0,0,1,2.437-5.629c2.092-3.222,4.505-6.235,6.775-9.343.762-1.044,2.054-1.8,1.99-3.8a8.158,8.158,0,0,0-1.925.852c-7.072,6.071-14.424,11.854-20.178,19.3-.085.11-.226.178-.7.1,1.091-2.611,2.042-5.292,3.313-7.812,1.234-2.447,2.8-4.729,4.214-7.083l-.512-.539a6.6,6.6,0,0,0-1.7.763q-5.423,4.646-10.772,9.381c-2.1,1.854-4.166,3.754-6.429,5.529a6.158,6.158,0,0,1,.366-.792c1.788-2.784,3.6-5.557,5.38-8.344,3.189-4.981,8.063-7.69,13.324-9.848,14.025-5.753,28.463-6.233,43.149-3.261a82.061,82.061,0,0,1,18.545,5.558c2.123.987,4.062,2.366,6.1,3.532a3.382,3.382,0,0,0,1.845.448,205.791,205.791,0,0,0-18.278-18.024c2.936.612,5.468,2.809,9.223,1.9a12.708,12.708,0,0,0-1.651-1.657c-4.721-3.079-8.37-7.274-12.05-11.477,3.671,1.624,7.062,3.842,10.851,5.139l.449-.586a9.991,9.991,0,0,0-1.294-1.567c-3.232-2.622-6.529-5.163-9.745-7.8a28.519,28.519,0,0,1-4.393-4.46c3.436,2.157,6.182,5.459,10.961,5.862l-10.865-18.123.458-.305c2.016,2.438,4.015,4.891,6.066,7.3a2.213,2.213,0,0,0,1.545.632c-4.156-7.315-8.661-14.319-10.3-22.528,2.6,3.349,3.774,7.839,7.408,10.6.225.17.635.1,1.391.19-.4-1.032-.669-1.787-.977-2.526a103.462,103.462,0,0,1-4.095-10,62.6,62.6,0,0,1-1.968-11.4c1.118,2.7,2.207,5.407,3.377,8.08.215.491.759.839,1.151,1.253l.3-.29V316.594l.2-.017.657,2.951c1.89-.6,1.377-2.248,2.1-3.442-.105,2.1-.22,4-.293,5.908a100.46,100.46,0,0,0,1.227,19.786,9.634,9.634,0,0,0,.662,1.794l.714.036c.343-.97.708-1.933,1.026-2.912,1.222-3.756,2.428-7.517,3.647-11.274a1.031,1.031,0,0,1,.516-.605c-.648,3.442-1.274,6.889-1.951,10.326-.87,4.421-1.908,8.815-2.609,13.262a16.651,16.651,0,0,0,.442,5.045,5.712,5.712,0,0,0,.962,1.7h.509a13.031,13.031,0,0,0,.9-1.716c1.616-4.583,3.2-9.179,4.8-13.767a1.5,1.5,0,0,1,.634-.81c-.405,1.846-.883,3.68-1.2,5.541-.857,5.038-1.55,10.106-2.5,15.125a13.349,13.349,0,0,0,.064,6.965c.2.575.795,1.012,1.209,1.513.447-.421,1.141-.765,1.3-1.275,1.246-4.016,2.4-8.062,3.559-12.1.354-1.231.653-2.479.978-3.719l.376.05c-.224,3.265-.486,6.527-.662,9.794-.292,5.4-.742,10.8-.7,16.2.021,2.758.937,5.514,1.516,8.256.094.443.546.811.833,1.214l.515-.078c.162-.78.349-1.555.482-2.34.5-2.951.847-5.934,1.518-8.843a19.507,19.507,0,0,1,1.942-3.972c-.462,11.205-.014,22.057,4.831,32.274,1.339-1.74.275-3.611.516-5.384.249-1.837.448-3.681.682-5.52.24-1.889.528-3.774.737-5.666.2-1.825.329-3.657.49-5.486l.62-.152,3.814,8.495c-1.03,1.272-3.038.69-3.44,2.483,1.794,1.331,4.882-.469,6.031,2.384l-5.881,2.889c.02.2.039.4.059.6a9.708,9.708,0,0,0,1.506.362c1.447.121,2.909.1,4.347.288a2.259,2.259,0,0,1,2.251,1.812c-2.619.64-5.237,1.272-7.11,3.315q.046.319.093.638a7.588,7.588,0,0,0,1.809-.022,11.793,11.793,0,0,1,6.381.323,3.873,3.873,0,0,1,1.688,1.315c-3.464.994-6.676,2.06-9.379,4.194q.059.323.117.644c1.987,0,3.987-.143,5.957.04,2.016.187,4,.694,6.368,1.128-2.126.561-3.877.889-5.529,1.487-3.572,1.292-4.08,4.184-.972,6.448a7.044,7.044,0,0,1,2.652,3.844,62.324,62.324,0,0,0,3.537,7.633,174.732,174.732,0,0,0,18.1,29.412,118.652,118.652,0,0,0,21.208,20.588c4.633,3.577,9.236,7.195,13.9,10.831l-17.1,6.836C610.881,501.217,608.725,499.142,606.707,496.94Zm19.838,53.8q-11.969,3.224-23.939,6.441a4.172,4.172,0,0,1-1.613.242c-5.8-.879-11.507.147-17.2.949a141.719,141.719,0,0,0-34.146,9.769c-.129.053-.283.044-.556-.136,1.147-.794,2.284-1.6,3.445-2.377,1.208-.806,2.419-1.611,3.663-2.359a257.183,257.183,0,0,1,41.138-19.737c7.9-3.01,15.858-5.878,23.857-8.835l10.982,14.532C630.5,549.683,628.52,550.212,626.545,550.744Zm166.911-13.185c-8.915,8.531-17.725,17.177-26.82,25.513-4.721,4.327-9.861,8.219-14.988,12.074a34.734,34.734,0,0,1-14,6.35,13.126,13.126,0,0,1-7.935-.939c-6.351-2.7-11.868-6.681-17.112-11.079-12.145-10.188-24.4-20.258-35.5-31.613-2.555-2.612-5.1-5.236-7.856-8.073,2.325-.542,4.385-1.043,6.454-1.5a274.32,274.32,0,0,1,34.984-5.881c7.635-.679,15.3-1.075,22.962-1.377,14.668-.579,29.273.581,43.851,2.028,8.73.866,17.436,1.986,26.152,2.995.239.028.475.09.712.137l.336.5C800.948,530.316,797.22,533.956,793.457,537.559Zm132.19,26.3c-5.446-1.9-10.561-3.749-15.724-5.461a119.53,119.53,0,0,0-24.822-5.207,36.688,36.688,0,0,0-7.188-.5c-4.495.411-8.675-.578-12.925-1.794-7.368-2.108-14.809-3.964-22.219-5.928-.375-.1-.743-.226-.793-.242l10.916-14.468C878.067,539.189,903.172,548.307,925.646,563.856Zm-56.605-63.589c1.589.663,3.167,1.586,3.5,3.793l-27.854,34.013a9.62,9.62,0,0,1-.806-.538c-4.4-3.6-9.59-5.6-14.937-7.234a215.659,215.659,0,0,0-37.987-7.742q-25.66-3.027-51.494-3.483a238.949,238.949,0,0,0-58.976,6.2c-11.817,2.758-23.684,5.329-35.187,9.264-2.984,1.021-5.891,2.27-8.824,3.44a18.573,18.573,0,0,0-7.375,5.427c-2.5-3.47-5.176-6.729-7.335-10.3-4.278-7.08-8.289-14.321-12.364-21.522-1.291-2.281-.948-4.072,1.317-5.4a67.022,67.022,0,0,1,7.573-3.644,200.055,200.055,0,0,1,42.947-13.011c10.449-1.91,20.945-3.584,31.449-5.173,21.85-3.3,43.86-3.9,65.9-3.233,13.029.394,26.052,1.255,39.051,2.262,9.138.708,18.261,1.793,27.332,3.115a146.771,146.771,0,0,1,29.4,7.968C859.3,496.279,864.188,498.242,869.041,500.266Zm83.451-60.761-2.319-2.727.5-.433,2.266,2.718Zm-15.439-16.491c-.5-.224-1-.449-1.5-.669q-6.337-2.775-12.678-5.543c-1.354-.588-3.272-3.135-3.734-5.173,3.548.941,5.447,4.138,8.283,5.907l.4-.267-.482-2.384C931.452,416.587,934.41,419.546,937.053,423.014Zm45.116-18.553a40.015,40.015,0,0,1,5.967,12.24c.076.277.129.561.234,1.019-9.071-10.409-20.424-20.65-23.005-20.3.552.9.953,1.683,1.479,2.375,2.3,3.024,4.815,5.906,6.907,9.067a49.8,49.8,0,0,1,3.225,6.846l-.452.251c-1.406-1.583-2.787-3.19-4.222-4.746-4.464-4.84-9.093-9.5-14.826-12.875a10.251,10.251,0,0,0-2.142-.7c-.055.15-.111.3-.166.449,2.387,3.1,4.961,6.072,7.108,9.328a86.778,86.778,0,0,1,5.657,10.5c-6.9-9.062-14.816-16.676-26.719-19.7a9.07,9.07,0,0,0,.851,1.968c.914,1.125,1.906,2.193,2.917,3.234a65.425,65.425,0,0,1,11.657,16.71,2.787,2.787,0,0,1,.318,1.623c-.815-.721-1.667-1.407-2.44-2.171-3.494-3.454-6.912-6.987-10.461-10.382a34.5,34.5,0,0,0-11.2-7.458c-1.145-.449-2.385-1.135-3.951-.02a14.69,14.69,0,0,0,1.581,1.783,40.7,40.7,0,0,1,11.263,13.922c.11.224.206.453.3.684.011.029-.034.081-.119.26-1.29-1.361-2.618-2.621-3.783-4.017-4.268-5.114-10.1-7.612-16.156-9.727a1.746,1.746,0,0,0-1.578.279,1.869,1.869,0,0,0,.177,1.637c1.47,2.271,3.046,4.473,4.565,6.712a4.087,4.087,0,0,1,.724,1.8c-.665-.57-1.289-1.2-2-1.7a52.9,52.9,0,0,0-4.865-3.246,7.245,7.245,0,0,0-8.107.361c-1.967,1.377-3.839,2.892-5.719,4.389a10.187,10.187,0,0,0-1.233,1.608,8.5,8.5,0,0,0,2.243-.025c5.72-2,11.193-.935,16.56,1.295,10.8,4.486,21.484,9.2,31.282,15.667,5.827,3.849,10.3,9.061,14.3,14.679,2.877,4.037,5.548,8.221,8.3,12.348a6.9,6.9,0,0,1,.45,1.083L959.122,442.23c-1.366,2.647.662,4.444.624,6.684-3.7-4.9-5.125-11.25-10.395-14.747l-.666.3L951.317,442l-.275.129q-2.689-3.068-5.378-6.136c-1.888-2.146-3.768-4.3-5.691-6.413a8.041,8.041,0,0,0-1.426-1.016l-.48.306a9.638,9.638,0,0,0,.293,2.078c1.02,2.762,2.12,5.5,3.086,8.3-3.5-4.366-5.4-10.024-10.763-13.339.6,3.765,1.126,7.114,1.656,10.463l-.417.17c-2.617-5.248-5.277-10.459-10.73-13.284l-.552.279c.226.7.44,1.4.679,2.093q1.83,5.312,3.664,10.623a1.071,1.071,0,0,1-.093.932c-1.461-2.832-2.78-5.749-4.426-8.468a71.1,71.1,0,0,0-4.782-6.517,4.924,4.924,0,0,0-1.551-1.169c-1.266-.694-2.116-.164-1.944,1.272s.524,2.859.8,4.285c.545,2.795,1.094,5.588,1.383,8.493-1.727-2.961-3.415-5.946-5.2-8.872a36.083,36.083,0,0,0-3.091-4.427c-1.167-1.394-2.1-1.3-2.866.329-1.562,3.306-2.879,6.727-4.439,10.034-9.055,19.2-18.582,38.14-31.832,54.911-2.02,2.557-4.158,5.02-6.248,7.52a2.712,2.712,0,0,1-.5.367l-15.924-5.482c1.154-.911,2.22-1.776,3.311-2.61,8.069-6.171,15.665-12.834,22.018-20.825a147.266,147.266,0,0,0,14.873-22.747c2.558-4.827,4.931-9.753,7.376-14.639a3.69,3.69,0,0,0,.453-1.265c.121-1.437,1-2.174,2.065-3.059a8.327,8.327,0,0,0,2.292-3.708c.187-.559-.606-1.823-1.275-2.211a37.249,37.249,0,0,0-4.938-2.011c.639-.4,1.1-.924,1.6-.967,2.333-.2,4.677-.268,7.017-.4a3.633,3.633,0,0,0,1.567-.408c-1.864-1.963-4.341-2.714-6.667-3.731.543-2.389,1.227-2.906,3.589-2.653,1.16.124,2.313.3,3.835.5-.883-2.491-3.071-2.566-4.6-3.708l1.163-2.409,4.317-.343.118-.615-3.05-1.825c.429-.947.87-1.92,1.293-2.855l2.025-.7-1.009-1.524,2.089-4.841c.476,3.182,1.035,6.063,1.306,8.972.265,2.833.234,5.695.333,8.544l.441.147a9.453,9.453,0,0,0,.906-1.336,34.146,34.146,0,0,0,3.111-11.41c.446-5.289.773-10.59,1.063-15.89a24.994,24.994,0,0,0-.413-3.853,19.357,19.357,0,0,1,3.61,10.86c.035.952.066,1.909.181,2.853a8.468,8.468,0,0,0,.455,1.491l.509.136a8.658,8.658,0,0,0,.92-1.727c1.843-6.785,1.779-13.646.96-20.578-.51-4.322-.651-8.689-.957-13.036l.411-.08c.5,1.925.971,3.858,1.505,5.773.86,3.089,1.688,6.19,2.695,9.232.255.77,1.135,1.333,1.729,1.991a10.952,10.952,0,0,0,1.292-2.194c.8-2.55.042-5.056-.387-7.574-1.125-6.613-2.2-13.234-3.25-19.563a2.85,2.85,0,0,1,.3.6c1.645,4.732,3.27,9.471,4.926,14.2a20.974,20.974,0,0,0,1.082,2.125,13.282,13.282,0,0,0,1.307-2.18c1.088-3.341.392-6.641-.316-9.942-1.33-6.209-2.625-12.427-3.936-18.641l.525-.158c1.024,3.1,2.074,6.188,3.06,9.3.439,1.383.719,2.816,1.134,4.208a7.388,7.388,0,0,0,.73,1.359l.5.046a8.088,8.088,0,0,0,.708-1.721,99.45,99.45,0,0,0,.946-24.886c-.022-.246,0-.5,0-.81l1.32,3.357.766-.084q.367-1.577.734-3.154l.139,0v18.667c.8.568,1.132-.065,1.421-.758,1.135-2.723,2.263-5.449,3.627-8.124-.419,2.652-.677,5.343-1.3,7.946a65.05,65.05,0,0,1-2.543,8c-.97,2.537-2.208,4.971-3.328,7.451l.42.44c.53-.228,1.213-.319,1.56-.708a28.6,28.6,0,0,0,2.738-3.547c1.321-2.059,2.519-4.2,3.979-6.657-1.719,8.57-6.2,15.4-10.45,22.33l.3.451c.44-.212,1.008-.315,1.3-.655,1.833-2.126,3.607-4.3,5.391-6.471.175-.212.283-.479.587-.581-2.576,6.334-6.43,11.9-9.978,17.712,4.613,0,7.275-3.455,10.538-5.78l.27.324a38.347,38.347,0,0,1-3.059,3.152c-3.284,2.715-6.659,5.319-9.97,8-.893.724-1.68,1.579-2.516,2.374l.341.642a8.059,8.059,0,0,0,1.758-.425c3.054-1.508,6.081-3.07,9.35-4.4-2.145,2.237-4.2,4.574-6.462,6.682s-4.717,3.963-6.979,6.117c3.373,1.191,5.92-1.166,8.889-1.73-6.374,5.721-12.613,11.519-18.431,17.744l.226.442a3.954,3.954,0,0,0,1.383-.358c6.411-4.77,13.926-6.736,21.505-8.565a84.517,84.517,0,0,1,20.707-2.547,66.458,66.458,0,0,1,29.662,6.724,24.008,24.008,0,0,1,9.973,8.657c1.8,2.869,3.656,5.7,5.256,8.755q-2.825-2.528-5.65-5.055c-3.6-3.2-7.183-6.406-10.818-9.56a12.036,12.036,0,0,0-2.189-1.227l-.507.468A15.612,15.612,0,0,0,982.168,404.461Zm-48.7-30.065-5.437,3.136-.207-.3C930.405,374.628,931.809,373.823,933.468,374.4Z" transform="translate(0 -32.784)"/>
    <path id="Tracé_24" data-name="Tracé 24" d="M922.32,202.843c1.329-4.568,2.658-9.136,4.008-13.774l-10.289-8.37.2-.658c4.241-.258,8.5-.069,12.9-.123l3.925-13.048.72.025c2.225,3.951,2.746,8.561,4.641,12.964h12.707l.3.617-9.25,8.279c1.376,4.8,3.5,9.429,4.42,14.385l-.622.39L934.3,193.808c-1.918,1.662-3.782,3.318-5.69,4.92-1.846,1.551-3.738,3.047-5.609,4.568Z" transform="translate(-199.571 0)"/>
    <path id="Tracé_25" data-name="Tracé 25" d="M776.043,270.43l-6.171,5.54,3.045,9.518-.525.411c-2.778-1.911-5.171-4.346-7.9-6.393l-7.556,6.313-.624-.374,2.716-9.239-6.891-5.651.207-.462h8.547l2.689-8.913.757-.039c.946,2.842,1.892,5.684,2.916,8.76h8.532Z" transform="translate(-127.755 -41.306)"/>
    <path id="Tracé_26" data-name="Tracé 26" d="M1107.662,261.418c.866,2.873,1.732,5.745,2.67,8.861h8.6l.188.5-6.909,5.675c.907,3.062,1.807,6.1,2.706,9.139l-.5.433c-1.278-1.012-2.573-2-3.828-3.042s-2.5-2.146-3.813-3.284l-7.821,6.48-.481-.29c.472-3.318,2.005-6.36,2.9-9.664l-6.162-5.561.179-.425h8.546l2.986-8.856Z" transform="translate(-278.08 -41.412)"/>
    <path id="Tracé_27" data-name="Tracé 27" d="M837.639,242.172c-2.7,1.759-4.584,4.59-7.856,5.376l-2.533,1.7a7.89,7.89,0,0,1,.017-1.76c.8-2.844,1.65-5.673,2.482-8.508.139-.477.268-.957.422-1.507l-8.424-6.884.2-.5,2.947-.348.283-1h7.644l2.919-9.57.557-.012,1.327,2.053c.448-1.1.874-2.137,1.3-3.178l.716-.024,3.538,10.658h10.376l.275.55-7.5,6.748,3.723,11.642-.576.4-3.154-2.258.653,3.214-.486.325C843.369,247.2,840.718,244.488,837.639,242.172Zm5.1-5.162,7.228-6.4-.152-.322H839.782l-3.342-10.338-.41.025c-1.024,3.426-2.048,6.853-3.119,10.437H822.89l-.125.348,8.046,6.5-3.2,10.818.354.207,8.866-7.531,9.233,7.68.341-.278C845.194,244.466,843.979,240.774,842.741,237.011Z" transform="translate(-158.256 -22.405)"/>
    <path id="Tracé_28" data-name="Tracé 28" d="M1012.177,228.721H1022.5c1.623-3.6,1.981-7.421,3.881-10.631l.5.012,1.047,2.48,1.277-1.981.563-.037,3.064,9.944,10.716.765q.126.348.254.7l-8.406,6.909c1.009,3.8,2.823,7.406,3.386,11.347l-.367.327-2.126-1.1-.09.244a5.856,5.856,0,0,1-2.018-.583c-2.174-1.688-4.256-3.493-6.5-5.362l-8.521,7.021-.475-.352c.05-.694.1-1.389.154-2.137l-2.543,1.725-.429-.319c.74-4.006,2.469-7.739,3.594-11.68l-7.541-6.763Zm22.565,7.947,8.052-6.494c-.042-.109-.083-.219-.124-.328h-10.042l-3.1-10.417-.419-.051-3.393,10.423H1015.3l7.494,6.616-3.649,11.2.4.181,9.151-7.625,9.16,7.751.439-.3Z" transform="translate(-241.583 -22.442)"/>
    <path id="Tracé_29" data-name="Tracé 29" d="M998.639,878.45l2.32-4.755c-1.553-.475-2.768-.75-3.9-1.228a4.75,4.75,0,0,1-1.745-1.363,1.246,1.246,0,0,1,.569-2.161,5.68,5.68,0,0,1,4.955-.06c.85.479,1.24,1.774,2.109,3.124h7.636a21.868,21.868,0,0,1-1.159,2.976c-1.155,1.995-2.419,3.925-3.644,5.878a7.4,7.4,0,0,0-1.091,6.318,6.528,6.528,0,0,0,2.1,3.125,7.678,7.678,0,0,0,10.06-1.225c.151-.169.331-.313.608-.571a2.751,2.751,0,0,1-1.153,3.253c-3,2.2-9.353,1.643-11.9-1.031a7.276,7.276,0,0,1-1.7-7.257c.74-2.96,2.539-5.3,4.395-7.621.574-.716,1.083-1.483,1.855-2.548h-6.926a6.544,6.544,0,0,1-3.648,6.241c-.741,3.748-2.464,5.507-5.444,5.59a4.045,4.045,0,0,1-2.665-7.328,14.329,14.329,0,0,1,3.591-2.251C996.112,874.785,997.57,875.679,998.639,878.45Zm-2.338,1.963-5.194-1.493a2.565,2.565,0,0,0-.365,3.194c.568,1.236,1.713,1.2,2.834,1.083C995.266,883.021,995.847,882.388,996.3,880.413Zm.693-1.244c-.311-2.035-1.532-3.084-3.014-2.814a1.664,1.664,0,0,0-1.167.913,1.467,1.467,0,0,0,.7,1.269A26.668,26.668,0,0,0,996.995,879.169Zm-.042-8.449c1.07,1.3,2.538,1.284,3.965,1.526.33-1.225-.4-1.691-1.178-2.034A2.129,2.129,0,0,0,996.953,870.719Z" transform="translate(-231.355 -307.356)"/>
    <path id="Tracé_30" data-name="Tracé 30" d="M839.715,878.35a4.211,4.211,0,0,1,.113.635c.01.948,0,1.9,0,3.191-1.314.165-2.5.365-3.7.457-3.945.3-7.969.177-11.826.923-9.14,1.766-18.2,3.94-27.294,5.946a7.832,7.832,0,0,1-2.584.248C809.008,883.976,823.8,879.085,839.715,878.35Z" transform="translate(-146.284 -311.743)"/>
    <path id="Tracé_31" data-name="Tracé 31" d="M1092.951,890.142c-1.3-.313-2.608-.6-3.9-.942-9.4-2.507-18.834-4.841-28.519-5.941-3.032-.344-6.1-.4-9.153-.53-3.9-.162-3.918-.158-3.629-4.274,15.87.666,30.652,5.62,45.313,11.058Z" transform="translate(-257.235 -311.789)"/>
    <path id="Tracé_32" data-name="Tracé 32" d="M897.1,867.033v6.757l6.49.57-.025.435h-6.374c-.453,3.606-.892,7.091-1.359,10.8,6.969.463,13.631,1.131,20.491.117a4.548,4.548,0,0,1-3.844,1.7c-3.6-.034-7.207-.241-10.81-.371-4.176-.151-8.352-.293-12.593-.26a11,11,0,0,0,2.378-.648c.689-.361,1.625-.947,1.751-1.574.614-3.077.993-6.2,1.48-9.481h-3.7l-.1-.43,3.569-.919v-6.167l-3.778-.647.028-.479c7.408,0,14.81-1.55,22.224.062l.013.538Z" transform="translate(-187.759 -306.227)"/>
    <path id="Tracé_33" data-name="Tracé 33" d="M976.2,875.017c-4.049.524-5.885,3.054-4.173,5.753,2.64-.23,4.909-3.243,4.85-6.188-.067-3.353.031-6.709.067-10.065a3.563,3.563,0,0,1,.192-.707l3.063,1.275c-.815,7.52-1.625,15-2.436,22.472l-.439.063c-.825-1.174-.582-2.612-.618-3.968-.038-1.4-.009-2.8-.009-4.479-.814.91-1.416,1.675-2.112,2.342-1.492,1.431-2.963,1.706-4.329.892-1.42-.847-1.9-2.38-1.36-4.368a4.681,4.681,0,0,1,7.618-3.508Z" transform="translate(-222.637 -305.372)"/>
    <path id="Tracé_34" data-name="Tracé 34" d="M925.86,887.5c-1.184.555-2.254,1.1-3.36,1.566-3.4,1.415-5.945-.111-6.379-3.793a6.823,6.823,0,0,1,6.691-7.467c1.019.02,1.936.319,2.186,1.447a1.736,1.736,0,0,1-1.052,2.248c-.243-1.065.133-2.43-1.431-2.491a3.064,3.064,0,0,0-3.179,2.047,8.32,8.32,0,0,0-.231,5.878c.464,1.449,1.206,1.845,2.634,1.338a15.374,15.374,0,0,0,3.4-1.558,3.157,3.157,0,0,0,.97-1.874c.354-1.641.556-3.313.848-5.153l1.948.558c.192,2.444-1.646,4.771-.313,7.2a3.076,3.076,0,0,0,2.861-1.974,10.485,10.485,0,0,0,1.113-3.516c.157-1.16-.067-2.372.186-3.783.288.338.714.631.84,1.021.874,2.7-.515,7.051-2.781,8.9C929,889.565,927.387,889.394,925.86,887.5Z" transform="translate(-199.588 -311.503)"/>
    <path id="Tracé_35" data-name="Tracé 35" d="M957.984,890.88c-1.794-.862-2.135-1.587-2.308-4.641a25.51,25.51,0,0,1-2.118,1.443,12.165,12.165,0,0,1-2.59,1.144,1.727,1.727,0,0,1-2.325-1.324,5.774,5.774,0,0,1,2.075-5.513c1.548-1.465,3.356-2.41,5.44-1.985a25.8,25.8,0,0,0-3.589,2.728,5.96,5.96,0,0,0-1.6,4.37c1.665.508,4.61-1.079,4.916-2.678.41-2.146.7-4.316,1.093-6.821l2.48.252c-.413,2.4-.871,4.493-1.11,6.611C958.112,886.53,958.1,888.618,957.984,890.88Z" transform="translate(-213.806 -311.416)"/>
    <path id="Tracé_36" data-name="Tracé 36" d="M891.937,917.056c-.325.976-.6,1.816-.892,2.65-.02.058-.174.068-.266.1-.77-.937.04-4.981,1.409-6.169.213.61.414,1.12.567,1.643.163.557.282,1.129.524,2.121l1.3-3.706.688-.007,1.371,6.3c-1.922-.486-1.134-2.1-1.919-2.907l-1.275,2.822-.543-.039Z" transform="translate(-188.373 -327.204)"/>
    <path id="Tracé_37" data-name="Tracé 37" d="M951.479,920l-3.664-3.926c-.127,1.278-.248,2.5-.4,4.009-1.091-1.168-1.12-5.607-.233-6.631l3.522,4.312.4-.125v-4.163C952.317,914.475,952.512,917.962,951.479,920Z" transform="translate(-212.942 -327.125)"/>
    <path id="Tracé_38" data-name="Tracé 38" d="M981.818,919.9c-.741-1.255-.689-5.48.109-6.467l3.532,4.332.365-.1v-4.117c1.229.8,1.464,3.957.509,6.438l-3.741-3.839C982.051,917.3,983.031,918.811,981.818,919.9Z" transform="translate(-228.163 -327.116)"/>
    <path id="Tracé_39" data-name="Tracé 39" d="M995.164,913.9a2.254,2.254,0,0,1,2.473,2.54c-.03,1.923-1.379,3.52-2.98,3.529a2.541,2.541,0,0,1-2.677-2.61A3.306,3.306,0,0,1,995.164,913.9Zm1.139,1.438c-1.159-.622-2.182-.536-2.679.52a3.857,3.857,0,0,0-.116,2.469c.071.267,1.36.553,1.808.309C996.581,917.95,996.687,916.708,996.3,915.341Z" transform="translate(-232.845 -327.321)"/>
    <path id="Tracé_40" data-name="Tracé 40" d="M938.686,913.907a2.261,2.261,0,0,1,2.6,2.409c.029,1.968-1.364,3.658-3.012,3.652a2.519,2.519,0,0,1-2.649-2.479A3.328,3.328,0,0,1,938.686,913.907Zm1.273,1.45c-1.116-.634-2.141-.592-2.665.471a3.715,3.715,0,0,0-.166,2.463c.079.28,1.453.562,1.917.293C940.206,917.911,940.381,916.707,939.959,915.357Z" transform="translate(-208.153 -327.323)"/>
    <path id="Tracé_41" data-name="Tracé 41" d="M919.634,913.481c3.348-.429,3.544-.389,3.912.939-.53-.041-1-.1-1.463-.1-.439,0-.879.07-1.415.117-.046.5-.085.922-.145,1.578h2.854l.076.565-2.9.643V918.6l2.785.31-.017.507c-1.07.679-2.243.329-3.691.2Z" transform="translate(-201.146 -327.03)"/>
    <path id="Tracé_42" data-name="Tracé 42" d="M1007.009,919.871l-1.077-1.629h-1.343l-1.4,1.633-.687-.5,3.188-5.432.566.089,1.293,5.594Z" transform="translate(-237.458 -327.338)"/>
    <path id="Tracé_43" data-name="Tracé 43" d="M975.8,919.986l-1.03-1.638H973.4l-1.357,1.632-.443-.319c.356-2.223,1.84-3.824,3.515-5.506q.64,2.8,1.28,5.594Z" transform="translate(-223.915 -327.432)"/>
    <path id="Tracé_44" data-name="Tracé 44" d="M905.714,914.068l1.256,5.607-.5.218-1.138-1.619H903.86l-.988,1.538-.417-.011c-.042-.366-.243-.819-.1-1.084.871-1.609,1.82-3.174,2.743-4.755Z" transform="translate(-193.553 -327.347)"/>
    <path id="Tracé_45" data-name="Tracé 45" d="M931.613,915.851l-1.379-.677c-1.831,1.141-2.228,2.31-1.2,3.723.324-.1.7-.188,1.057-.323s.7-.313,1.054-.474l.353.294c-.239.353-.424.943-.728,1.012a4.618,4.618,0,0,1-2.509.121,2.341,2.341,0,0,1-.953-1.841,3.619,3.619,0,0,1,4.3-3.5Z" transform="translate(-204.51 -327.433)"/>
    <path id="Tracé_46" data-name="Tracé 46" d="M967.189,918.325a2.37,2.37,0,0,1-2.967,1.392,2.113,2.113,0,0,1-1.2-2.626c.371-1.935,1.842-3.065,4.179-3.08.031.5.062,1.011.107,1.752l-1.526-.652c-1.062.662-2.019,1.606-1.649,2.875C964.742,920.064,966.138,917.549,967.189,918.325Z" transform="translate(-220.127 -327.369)"/>
    <path id="Tracé_47" data-name="Tracé 47" d="M915.585,919.224c-1.089.833-2.371.811-3.861.631a25.922,25.922,0,0,1,.275-6.1l.676.025v5.125l2.763-.349Z" transform="translate(-197.657 -327.257)"/>
    <path id="Tracé_48" data-name="Tracé 48" d="M918.245,519.914c-1.25,2.182-2.4,4.01-4.779,4.55-6.151,1.4-12.253,3.09-18.462,4.146-20.186,3.431-40.558,3.44-60.936,2.7a213.859,213.859,0,0,1-54.342-8.873c-1.771-.536-3.522-1.144-5.378-1.75-4.008,3.514-8.02,7.067-12.073,10.573-3.449,2.984-6.84,6.05-10.453,8.825a90.394,90.394,0,0,1-8.909,5.828c-2.389,1.422-4.311.3-3.9-2.423a105.1,105.1,0,0,1,2.661-12.475c3.924-14.115,10.707-26.867,18.987-38.867,2.275-3.3,5.321-5.556,8.757-7.744,5.731-3.651,12.162-4.783,18.371-6.776.906-.291,2.021-.563,2.65,1.022a11.165,11.165,0,0,1-1.479,1.422c-1.537,1.038-3.111,2.024-4.706,2.971a23.79,23.79,0,0,0-10.32,11.782c-2.1,5.252-4.058,10.562-5.93,15.9a15.341,15.341,0,0,0-.57,4.445c-.049,1.3.631,2.185,2.276,2.384,1.474-1.565,3.116-3.176,4.608-4.915q13.716-15.987,27.346-32.047a35.959,35.959,0,0,0,3.89-5.871c.992-1.8.511-2.935-1.517-3.332A45.346,45.346,0,0,0,796,470.5c-9.711-.137-19.13,1.9-28.509,4.138-2.534.606-5.067,1.22-7.615,1.766-1.346.288-2.668.156-3.433-1.19a3.08,3.08,0,0,1,.455-3.65c2.3-2.783,4.583-5.59,7.043-8.229,4.306-4.621,8.441-9.467,13.188-13.6a48.322,48.322,0,0,1,25.812-11.623c4.276-.566,8.53-1.292,12.872-.655,4.756.7,7.158,3.667,6.694,8.451a13.163,13.163,0,0,1-.6,3.388,3.307,3.307,0,0,1-1.682,1.837c-.444.155-1.26-.7-1.88-1.134a4.989,4.989,0,0,1-.693-.824,19.865,19.865,0,0,1-.8,3.357c-.3.706-.964,1.61-1.592,1.723a2.6,2.6,0,0,1-2.016-1.118c-2.152-3.255-4.1-4.941-10.174-3.5a16,16,0,0,0-7.347,3.606c-2.655,2.442-5.334,4.859-7.957,7.335a7.055,7.055,0,0,0-1.652,2.607c.795-.049,1.589-.123,2.385-.143,7.911-.2,15.827-.642,23.731-.489,5.1.1,7.383,3.738,6.231,8.761-1.082,4.717-3.644,8.667-6.594,12.374-6.575,8.262-14.116,15.613-21.789,22.831-2.7,2.541-5.475,5-8.233,7.48a8.858,8.858,0,0,1-1.249.8l.268.515c2.037.629,4.07,1.27,6.111,1.885,11.337,3.42,22.749,6.519,34.529,8.034a292.928,292.928,0,0,0,32.731,1.956,268.537,268.537,0,0,0,59.3-6.084C915.034,520.788,916.507,520.355,918.245,519.914Z" transform="translate(-121.98 -118.45)"/>
    <path id="Tracé_49" data-name="Tracé 49" d="M1065.41,533.279l-1.544-.715c-1.645,2.731-2.753,2.915-4.425.141-2.37-3.933-4.4-8.08-6.386-12.228a5.045,5.045,0,0,1-.045-3.337c3.487-11.4,7.229-22.72,10.576-34.158,3.447-11.777,6.534-23.658,9.775-35.5.118-.43.192-.871.324-1.477h-6.357l-.883-4.668,1.983-1.361-.083-.371,6.877.316c.186-.613.39-1.214.55-1.825,1.613-6.156,3.194-12.32,4.835-18.469,1.06-3.975,3.525-6.385,7.509-7.865a46.56,46.56,0,0,1,10.763-2.545,4.768,4.768,0,0,1,4.605,1.909c2.621,3.234,5.286,6.434,7.826,9.73,3.857,5.007,7.629,10.079,11.416,15.139a16.706,16.706,0,0,1,1.054,1.847l-.392.418-6.127-3.774,3.219,4.781-.4.484a19.484,19.484,0,0,1-2.084-1.083q-10.4-7.042-20.782-14.121c-.73-.5-1.5-.936-2.447-1.526-1.765,6.338-3.466,12.446-5.228,18.771,1.946.3,3.708.57,5.472.838,15.576,2.366,31.12,4.9,46.095,10.01a49.239,49.239,0,0,1,8.149,3.427c3.722,2.079,4.062,4.691,1.11,7.81a62.718,62.718,0,0,1-14.079,10.724c-12.685,7.445-25.931,13.8-39.214,20.081-6.751,3.19-13.6,6.172-20.416,9.227-.8.358-1.661.579-2.656.92.076-.394.057-.594.133-.64a62.15,62.15,0,0,1,7.419-4.437,305.383,305.383,0,0,0,50.065-28.051,27.533,27.533,0,0,0,5.058-4.66c1.917-2.214,1.812-4.607-.4-6.53a16.1,16.1,0,0,0-5.593-3.379,157.863,157.863,0,0,0-16-4.05c-8.9-1.706-17.876-3.054-26.981-4.58-.92,3.471-1.8,6.642-2.6,9.834q-7.164,28.666-14.287,57.343c-1.134,4.572-2.1,9.185-3.242,13.755C1067.226,530.827,1067.167,532.484,1065.41,533.279Z" transform="translate(-259.473 -106.168)"/>
    <path id="Tracé_50" data-name="Tracé 50" d="M881.954,508.094c1.546-1.489,3.176-2.9,4.623-4.481a331.042,331.042,0,0,0,31.432-40.069c1.408-2.113,2.318-4.552,3.643-6.729a6.557,6.557,0,0,1,2.674-2.827c4.466-1.665,9.047-3.022,13.591-4.478a5.24,5.24,0,0,1,1.324-.256c1.543-.078,2.439,1.029,1.808,2.427a22.281,22.281,0,0,1-2.117,3.445c-4.343,6.253-8.906,12.364-13.015,18.766a73.627,73.627,0,0,0-9.5,20.378,28.945,28.945,0,0,0-1.047,12.345,5.206,5.206,0,0,1-1.7,4.873q-6.1,5.923-12.153,11.887c-.965.949-1.879,1.949-2.818,2.925-.813.846-1.643,1.182-2.531-.083a19.287,19.287,0,0,1-2.053,2.088,6.2,6.2,0,0,1-1.8.635c-.151-.623-.563-1.321-.41-1.858,1.293-4.528,2.681-9.03,4.059-13.534a84.426,84.426,0,0,0,2.335-8.6c-.379.421-.745.853-1.137,1.259-3.794,3.926-7.432,8.025-11.46,11.694-1.977,1.8-4.672,2.818-7.063,4.153a29.738,29.738,0,0,1-2.963,1.444c-3.848,1.62-6.371.761-8.13-3.03-2.364-5.1-3.233-10.487-.93-15.748,2.527-5.772,5.418-11.406,8.474-16.922,4.541-8.2,9.337-16.257,14.089-24.337,1.5-2.55,3.083-5.143,5.944-6.4,2.6-1.143,5.3-2.052,7.955-3.085q4.105-1.6,8.193-3.246c.417-.167.787-.531,1.208-.587.587-.078,1.419-.171,1.741.149s.259,1.176.106,1.725a5.928,5.928,0,0,1-.976,1.68q-9.773,13.9-19.57,27.792a89.667,89.667,0,0,0-10.983,19.966,14.233,14.233,0,0,0-1.231,6.383Z" transform="translate(-177.324 -123.728)"/>
    <path id="Tracé_51" data-name="Tracé 51" d="M991.87,525.425c.121,1.67-.942,2.249-2.238,2.262-5.641.057-11.109-.826-16.045-3.735a7.756,7.756,0,0,1-3.848-8.365,94.871,94.871,0,0,1,3.054-13.912c3.75-11.675,7.761-23.269,11.861-34.827a84.339,84.339,0,0,1,4.792-10.331c.916-1.774,1.829-2.119,3.887-2.351,1.1-1.911,2.826-2.111,5.04-2.163,2.518-.058,5.015-1.134,7.513-1.8.655-.174,1.282-.456,1.921-.689l.368.315c-.361.643-.712,1.292-1.084,1.928q-5,8.557-10,17.114a14.016,14.016,0,0,0-.637,1.6c.623-.524.928-.744,1.192-1.007,5.855-5.841,12.908-9.78,20.528-12.76a23.289,23.289,0,0,1,5.123-1.092,3.272,3.272,0,0,1,3.625,1.838,31.221,31.221,0,0,1,3.894,12.384,12.6,12.6,0,0,1-.215,2.154l-.528.277-3.38-3.637c.093,2.015.18,3.894.267,5.774l-.62.24a14.129,14.129,0,0,1-1.379-1.134c-1.243-1.307-2.438-2.659-3.669-3.978a4.016,4.016,0,0,0-4.93-.9,33.1,33.1,0,0,0-17.563,16.283,70.443,70.443,0,0,0-7.151,25.775,15.092,15.092,0,0,0,2.828,10.662c.576.779,1.3,2.351.985,2.7-.648.726-1.937.882-2.966,1.263A4.268,4.268,0,0,1,991.87,525.425Z" transform="translate(-223.044 -123.845)"/>
    <path id="Tracé_52" data-name="Tracé 52" d="M939.966,306.168c2.24,2.128,2.237,2.121,5.032.982a15.751,15.751,0,0,1,1.54-.443,11.57,11.57,0,0,1,.48,1.329,12.468,12.468,0,0,1,.154,1.435l2.358-.579c.655,5.909,1.3,11.678,1.935,17.447l.471.014c.277-2.2.572-4.389.829-6.588.506-4.331.965-8.668,1.507-12.995a17.01,17.01,0,0,1,.764-2.641l.682-.066,1.377,4.463.916-2.189.527.006a13.534,13.534,0,0,1,.786,2.283c1.591,10,2.43,20.016.337,30.056a13.328,13.328,0,0,1-.884,2.705c-.72,1.606-1.593,1.823-3.109.9-5.357-3.268-8.9-7.83-10.082-14.086a5.981,5.981,0,0,0-.51-1.522c-.424,6.1,1.057,11.981,1.9,18-3.375-2.134-7.175-3.9-8.024-8.263a37.574,37.574,0,0,1-.634-8.5c.244-6.562.756-13.114,1.187-19.669A14.728,14.728,0,0,1,939.966,306.168Z" transform="translate(-209.322 -60.113)"/>
    <path id="Tracé_53" data-name="Tracé 53" d="M965.818,396.452a12.3,12.3,0,0,1-1.522-.294,107.019,107.019,0,0,0-30.071-4.674q-12.7-.346-25.414-.015c-7.115.195-14.284.706-21.014,3.26a47.693,47.693,0,0,0-8.3,4.73c-1.892,1.2-2.216,1.332-4.105.067-.161-.108-.351-.269-.518-.258-2.155.143-2.9-1.443-3.7-2.974-.464-.887-.92-1.779-1.409-2.653-.928-1.659-.7-2.492,1.146-3.047,2.492-.748,5.027-1.369,7.57-1.924,15.243-3.328,30.67-4.11,46.219-3.366a126.2,126.2,0,0,1,23.1,2.786,68.031,68.031,0,0,1,17.151,7.138,9.016,9.016,0,0,1,1.04.781Z" transform="translate(-179.061 -95.595)"/>
    <path id="Tracé_54" data-name="Tracé 54" d="M869.583,626.271a9.11,9.11,0,0,1,1.656.229c9.141,2.992,18.6,4.044,28.135,4.554a230.84,230.84,0,0,0,31.733-.2c5.9-.5,11.843-1,17.357-3.329a42.086,42.086,0,0,0,7.056-4.218c2.112-1.438,2.11-1.149,4.485-.267,3.344,1.241,3.586,4.469,5.186,6.808.2.289-.253,1.344-.685,1.666a6.859,6.859,0,0,1-2.355.923c-15.852,4.14-32,5.458-48.326,4.975-9.386-.278-18.737-.852-27.892-3.191a54.214,54.214,0,0,1-15.481-6.825,9.857,9.857,0,0,1-.98-.8Z" transform="translate(-179.167 -199.555)"/>
    <path id="Tracé_55" data-name="Tracé 55" d="M1039.011,326.9c.193.521.347.94.531,1.439,1.707.146,1.779,1.449,1.74,2.748-.183,6.163-.413,12.324-.593,18.487a46.976,46.976,0,0,0,1.129,13.589,1.2,1.2,0,0,1,.059.445c-.114.843-.245,1.684-.371,2.525a10.486,10.486,0,0,1-3-.916,7.555,7.555,0,0,1-3.355-6.725c.011-3.493-.339-6.988-.531-10.461l-6.308-1.627c-.9,1.557-1.777,3.054-2.627,4.568-.809,1.44-1.548,2.92-2.386,4.342-1.032,1.751-2.332,1.85-3.728.343-.2-.219-.307-.588-.547-.7-2.477-1.214-1.825-2.98-1.032-4.927a79.265,79.265,0,0,1,13.764-21.926,9.727,9.727,0,0,1,2.084-1.93,3.481,3.481,0,0,1,1.956-.337,6.5,6.5,0,0,1,1.528.59C1037.84,326.6,1038.375,326.725,1039.011,326.9Zm-4.52,19.931v-9.056l-.307-.087-4.557,6.356,4.5,1.416-1.487.906Z" transform="translate(-243.93 -69.647)"/>
    <path id="Tracé_56" data-name="Tracé 56" d="M917.3,346.889c-.294.368-.365.522-.485.6-1.851,1.16-6.565.129-7.616-1.783-1.882-3.424-3.646-6.912-5.461-10.372-.139-.265-.285-.525-.484-.89l-5.235.974c-.121,1.364-.281,2.737-.358,4.115-.12,2.152-.125,4.312-.291,6.46-.106,1.378-.944,1.882-2.3,1.647a21.438,21.438,0,0,0-2.459-.294c-1.464-.081-2.1-.675-2.243-2.273a71.328,71.328,0,0,1,.829-18.583c.507-2.96,1.189-5.891,1.8-8.834.423-2.042,1.262-3.6,3.762-3.354A5.6,5.6,0,0,0,898.28,314l1.128.77,2.071-.35a14.4,14.4,0,0,1,1.212,1.961q3.445,8.172,6.818,16.375a53.377,53.377,0,0,0,6.647,12.086A16.341,16.341,0,0,1,917.3,346.889ZM902.792,333.4l-3.308-6.985-.373.062c-.325,2.163-.649,4.326-1.018,6.783l3.49-.652v.964Z" transform="translate(-188.206 -64.468)"/>
    <path id="Tracé_57" data-name="Tracé 57" d="M991.343,314.234c.049-.005.124.01.146-.018,1.206-1.528,2.488-2.979,4.722-2.354,3.043.852,5.706,2.215,6.755,5.536a19.83,19.83,0,0,1,.336,8.932,55.449,55.449,0,0,1-5.166,17.643,13.4,13.4,0,0,1-1.031,1.654c-3.26,4.569-9.7,4.1-11.832-1.107a28.134,28.134,0,0,1-1.788-8.747,51.474,51.474,0,0,1,2.923-20.235c.785-2.277,1.507-3.142,3.052-3.84l.724,1.032,1.686-.206c-.22.757-.362,1.246-.5,1.742a31.992,31.992,0,0,0-1.354,4.444,84.272,84.272,0,0,0-.844,18.444,27.931,27.931,0,0,0,1,4.354c4.767-2.624,8.538-21.17,5.412-25.067-.646.394-1.293.786-2.071,1.257l-.334-1.374-1.651.8C991.453,315.97,991.4,315.1,991.343,314.234Z" transform="translate(-229.08 -63.458)"/>
    <path id="Tracé_58" data-name="Tracé 58" d="M860.821,338.608l-2.146-1.705-.2.269a18.218,18.218,0,0,1-2.583-1.771,38.686,38.686,0,0,1-2.654-3.091,3.856,3.856,0,0,0-3.6,4.23,22.659,22.659,0,0,0,1.2,5.981,38.113,38.113,0,0,0,5.137,10.308,2.5,2.5,0,0,0,2.588-2.189,33.905,33.905,0,0,0,.3-5.324,13.44,13.44,0,0,0-.24-1.964c1.833-1.046,2.429.508,3.36,1.392,1.627-.268,2.5.708,2.973,2.093a16.225,16.225,0,0,1,.574,8.747c-.732,3.387-4.414,5.239-8.293,3.906-3.905-1.342-7.577-3.225-9.955-6.862-3.737-5.717-6.054-11.872-5.447-18.827.6-6.866,6.372-9.373,12.277-5.866a17.028,17.028,0,0,1,7.187,7.744C861.707,336.578,862.219,337.654,860.821,338.608Z" transform="translate(-167.014 -69.88)"/>
    <path id="Tracé_59" data-name="Tracé 59" d="M1045.161,676.968a11.971,11.971,0,0,1,1.246,1.915c1.39,3.375,2.714,6.78,4.154,10.41.5-.63.953-1.124,1.313-1.681,2.065-3.2,4.068-6.44,6.178-9.609a31.176,31.176,0,0,1,2.534-2.963l.668.235c.047.829.164,1.661.13,2.487-.166,4.1-.544,8.2-.524,12.3a91.76,91.76,0,0,0,2.545,18.734,8.266,8.266,0,0,1,.166,1.035,2.364,2.364,0,0,1-.074.548,3.207,3.207,0,0,1-4.672-1.955,47.017,47.017,0,0,1-1.244-6.785c-.514-4.38-.879-8.777-1.312-13.166-.039-.392-.119-.78-.236-1.529-2.764,4.007-3.542,8.536-5.463,13.074-2.8-3.663-3.458-7.706-5.015-11.8l-3.72,17.331a17.075,17.075,0,0,1-3.316-.848,2.038,2.038,0,0,1-.633-1.77c.8-4.177,1.663-8.344,2.625-12.487.893-3.852,1.9-7.677,2.935-11.5a9.4,9.4,0,0,1,1.088-1.982Z" transform="translate(-252.951 -222.66)"/>
    <path id="Tracé_60" data-name="Tracé 60" d="M814.721,720.634c-1.911,1.664-3.847,1.7-5.2.071-2.015-2.427-3.926-4.951-5.728-7.54-2.864-4.113-5.6-8.316-8.4-12.476-.294-.438-.638-.843-1.25-1.644-.9,3.749-.693,7.106-.79,10.467,2.382.769,4.357-.379,6.732-.825-1.7,2.52-4.447,2.172-6.69,3.38.147,2.172.3,4.454.458,6.735.069,1,.149,2,.222,3,.087,1.188-.239,2.093-1.582,2.3a2.108,2.108,0,0,1-2.673-1.765c-.434-2.057-.843-4.13-1.08-6.217a73.541,73.541,0,0,1,.687-22.014,2.5,2.5,0,0,1,2.475-2.3c3.046-.406,3.078-.535,4.674,2.084,2.973,4.879,5.727,9.9,8.88,14.659,2.313,3.489,5.12,6.651,7.7,9.965C813.688,719.191,814.182,719.9,814.721,720.634Z" transform="translate(-143.57 -229.907)"/>
    <path id="Tracé_61" data-name="Tracé 61" d="M848.447,692.654c-.693-.715-1.4-1.462-2.122-2.184a31.858,31.858,0,0,0-3.764-3.617c-1.767-1.251-3.463-.619-4.45,1.335a7.189,7.189,0,0,0-.118,6c1.483,3.762,3.2,7.437,4.948,11.083a7.373,7.373,0,0,0,2.159,2.452,2.573,2.573,0,0,0,4.2-1.074,9.22,9.22,0,0,0,.452-5.891c-.125-.618-.193-1.247-.278-1.817,1.524-.7,2.7-.352,3.136,1.3a25.558,25.558,0,0,1,1.038,7.065c-.15,5.251-4.161,7.82-9.144,5.952a11.007,11.007,0,0,1-4.246-2.72c-5.462-6.084-8.263-13.25-7.465-21.473.471-4.854,2.535-7.2,8.023-7.134a6.427,6.427,0,0,1,3.358,1.1,14.258,14.258,0,0,1,5.314,7.279A1.633,1.633,0,0,1,848.447,692.654Z" transform="translate(-163.039 -225.679)"/>
    <path id="Tracé_62" data-name="Tracé 62" d="M987.133,697.219c6.4.488,12.633-.251,18.587,1.518q.025.316.051.632a5.016,5.016,0,0,1-1.369.531c-2.147.156-4.324.07-6.446.378-4.058.587-8.1,1.313-12.122,2.11-3.438.683-4.035.321-3.68-3.132.754-7.325,1.622-14.638,2.453-21.955a9.308,9.308,0,0,1,.264-1.172c.619-2.492,1.235-3.086,3.758-2.806a69.2,69.2,0,0,1,17.54,3.909,16.439,16.439,0,0,1,2.417,1.438l-.176.471a5.421,5.421,0,0,1-1.1.132q-7.644-.623-15.285-1.281c-3.413-.29-3.72-.016-3.774,3.391-.006.346,0,.692,0,1.009,4.937,2.355,10.607,2.025,15.415,4.457l-.1.575-1.611-.082c-3.745-.184-7.489-.5-11.234-.5-2.237,0-2.546.443-2.832,2.664C987.565,692.018,987.388,694.549,987.133,697.219Z" transform="translate(-228.502 -221.88)"/>
    <path id="Tracé_63" data-name="Tracé 63" d="M938.235,701.265a8.891,8.891,0,0,1-.876-5.18c.036-.36.85-.8,1.373-.928a26.277,26.277,0,0,0,9.546-4.944,17.231,17.231,0,0,0,3.118-3.22,3.52,3.52,0,0,0-.234-4.941c-3.685-3.6-8.338-5.126-13.5-6.034a69.819,69.819,0,0,0-1.283,13.605c.089,4.474.517,8.941.8,13.443-1.387.26-1.755-.723-1.939-1.517a50.5,50.5,0,0,1-1.5-7.806c-.4-5.794-.508-11.609-.716-17.416a11.259,11.259,0,0,1,.141-1.8c.269-2.13,1.1-2.886,3.219-2.526,3.891.661,7.8,1.317,11.615,2.287a12.283,12.283,0,0,1,6.379,4.578,6.789,6.789,0,0,1,1.036,7.335,19.344,19.344,0,0,1-6.921,8.345C945.22,696.841,941.808,698.938,938.235,701.265Z" transform="translate(-207.013 -221.293)"/>
    <path id="Tracé_64" data-name="Tracé 64" d="M887.944,695.281c-.146,2.894-.278,5.789-.443,8.682-.114,1.994-.906,2.595-2.677,2.148a1.928,1.928,0,0,1-1.434-2.189c.056-4.453-.109-8.934.356-13.347a112.3,112.3,0,0,1,2.375-11.76c.366-1.7,1.229-2.815,3.228-2.565a8.217,8.217,0,0,0,2.023-.315,30.217,30.217,0,0,1,1.6,2.761c2.407,5.339,4.633,10.765,7.2,16.028,1.459,3,3.445,5.734,5.187,8.591.451.739.878,1.491,1.286,2.185-1.59,1.422-3.55,1.326-4.637-.18a36.738,36.738,0,0,1-2.762-4.466c-2.667-5.1-5.257-10.247-7.885-15.371-.3-.594-.658-1.162-.989-1.742l-.567.024q-.822,4.485-1.64,8.952c2.174,1.237,4.139.182,6.416.184C892.7,695.018,890.179,694.365,887.944,695.281Z" transform="translate(-185.266 -223.053)"/>
    <path id="Tracé_65" data-name="Tracé 65" d="M1103.894,682.75c-2.337,5.743-.608,10.791,1.63,16.254,4.677-4.049,9.552-7.456,11.825-13.307a2.488,2.488,0,0,1,2.615,1.638,2.794,2.794,0,0,1-.429,2.3c-1.963,2.594-3.99,5.15-6.149,7.581-4.291,4.833-8.668,9.589-13.048,14.342a25.494,25.494,0,0,1-2.9,2.613c-1.734,1.382-3.238,1.329-5.362-.224.486-.6.934-1.224,1.452-1.783,2.11-2.28,4.224-4.555,6.369-6.8a5.089,5.089,0,0,0,1.36-5.1c-.934-3.738-1.9-7.475-2.637-11.253-.663-3.382.435-5.133,3.409-6.027A13.382,13.382,0,0,1,1103.894,682.75Z" transform="translate(-276.705 -226.039)"/>
    <path id="Tracé_66" data-name="Tracé 66" d="M913.113,782.071c-1.534-3.96-1.1-5.3,2.012-6.706-.4-3.095,1.742-4.333,4.161-5.262.115-3.128,3.394-4.56,5.895-4.4a31.305,31.305,0,0,1,6.354,1.628c1.753.5,3.483,1.085,5.468,1.709.086-.952.17-1.478.175-2.005.024-2.157-.042-4.317.047-6.47a8.138,8.138,0,0,1,7.084-7.255c1.205-.075,2.144.748,1.7,1.838-1.577,3.891.453,7.75-.089,11.607a.776.776,0,0,0,.058.443c2.523,4.748.619,9.829.92,14.73.262,4.266-2.881,7.471-6.08,10.093-4.536,3.718-9.56,4.666-15,2.005a49.907,49.907,0,0,0-5.513-2.742c-3.968-1.358-8.036-2.423-12.046-3.665-1.864-.577-3.7-1.264-5.525-1.948a11.465,11.465,0,0,1-1.873-.956c-1.863-1.126-2.633-2.486-2.144-3.71.441-1.1,2.935-2.226,4.438-1.886,1.07.242,2.089.7,3.146,1.009C908.5,780.775,910.7,781.385,913.113,782.071Zm-7.28,2.861,1.3-3.831a29.786,29.786,0,0,0-4.169-1.3c-.638-.1-1.843.331-1.976.769a2.39,2.39,0,0,0,.686,2.137,32.363,32.363,0,0,0,4.2,2.186l3.635,1.459,1.678-2.807.419.184-.695,2.852,3.952.927c.257-1.357.481-2.537.7-3.717l.565.054c-.059,1.235-.116,2.471-.18,3.821l3.312,1.044,3.166-2.764.416.364-2.429,2.878c2.48,1.254,4.813,2.5,7.2,3.625,5,2.358,9.638,1.93,13.7-2.037,3.477-3.395,5.85-7.2,4.979-12.415a15.392,15.392,0,0,1,.175-5.22,6.966,6.966,0,0,0-.449-4.076,11.381,11.381,0,0,1-.74-3.023c-.2-1.89-.321-3.794-.355-5.694-.025-1.423.139-2.85.219-4.275.036-.655.07-1.31.1-1.956a5.627,5.627,0,0,0-5.673,6.969l3.474-.213.045.58-3.638.78c-.145,2.493-.277,4.775-.42,7.229l3.3,1.685a1.7,1.7,0,0,1-1.565.046,16.15,16.15,0,0,0-6.818-2.294,8.807,8.807,0,0,1-1.414-.506,35.706,35.706,0,0,0-5.253-1.793,9.665,9.665,0,0,0-4.373.243c-1.46.433-1.966,2.864-.873,3.767,1.721,1.422,3.61,2.642,5.308,3.861l2.106-2.377.323.315-1.419,2.557,2.8,1.427,2.733-2.9c-1.936-1.847-4.927-3-6.331-5.775l.3-.334,2.884,2.671,1.254-.892c-.083.662-.138,1.1-.236,1.885l1.346-1.739.329.175-.577,1.734c1,1.177,2.223,2.132,2.761,3.382.655,1.519-.154,2.883-1.684,3.6,1.1,2.741.708,3.505-2.078,4.239-.271,3.356-1.888,4.6-4.986,3.308-5.826-2.432-12.06-2.833-18.128-4.067-.181-.037-.387.047-.271.03ZM927.92,780.9a1.975,1.975,0,0,0-.317-.194q-5.007-2.4-10.017-4.788a2.189,2.189,0,0,0-3.243,1.909,3.885,3.885,0,0,0,2.41,4.108c3.426,1.038,6.9,1.922,10,2.772Zm3.191-3.269q-4.394-2.855-8.792-5.706a7.964,7.964,0,0,0-1.57-.854c-1.535-.553-2.64,0-3.334,1.6-.542,1.248-.219,2.16,1.262,2.9,2.732,1.359,5.508,2.628,8.276,3.913.75.348,1.537.617,2.235.894Zm-3.7,6.153.359.791a11.282,11.282,0,0,0,2.576-.075c.235-.056.532-1.22.312-1.523-.381-.526-1.369-1.22-1.7-1.052C928.3,782.264,927.91,783.134,927.41,783.785Zm4.322-5.555-1.527,1.816,2.573.954C933.558,779.64,932.766,779.084,931.732,778.23Zm.88-1.772c.92.37,1.763.74,2.148-.425a1.382,1.382,0,0,0-.587-1.214C933.112,774.6,932.714,775.314,932.612,776.458Z" transform="translate(-191.921 -256.955)"/>
    <path id="Tracé_67" data-name="Tracé 67" d="M961.91,802.209l3.811,4.146-.085.294-6.073-1.9.175-.674,2.555.511C962.182,803.906,962.067,803.184,961.91,802.209Z" transform="translate(-218.641 -278.381)"/>
    <path id="Tracé_68" data-name="Tracé 68" d="M929.271,797.923c-1.119-1.286-.833-2.259.83-2.823Z" transform="translate(-205.075 -275.266)"/>
    <path id="Tracé_69" data-name="Tracé 69" d="M933.339,788.551c-.382-1.814.42-2.618,2-2.124Z" transform="translate(-207.11 -271.403)"/>
  </g>
</svg>
