<svg xmlns="http://www.w3.org/2000/svg" width="88.902" height="80.648" viewBox="0 0 88.902 80.648">
  <g id="logo" transform="translate(-169.14 558.309)">
    <path id="Tracé_1" data-name="Tracé 1" d="M226.912-398.517c-.4.7-.775,1.292-1.54,1.466-1.982.451-3.948,1-5.949,1.336a95.844,95.844,0,0,1-19.635.869,68.9,68.9,0,0,1-17.51-2.859c-.571-.173-1.135-.369-1.733-.564-1.292,1.132-2.585,2.277-3.89,3.407-1.111.962-2.2,1.95-3.368,2.844a29.15,29.15,0,0,1-2.871,1.878c-.77.458-1.389.1-1.257-.781a33.879,33.879,0,0,1,.857-4.02,41.806,41.806,0,0,1,6.118-12.524,9.27,9.27,0,0,1,2.822-2.5c1.847-1.176,3.919-1.541,5.919-2.183.292-.094.651-.181.854.329a3.6,3.6,0,0,1-.477.458c-.5.334-1,.652-1.516.957a7.665,7.665,0,0,0-3.326,3.8c-.676,1.693-1.307,3.4-1.911,5.123a4.945,4.945,0,0,0-.184,1.432c-.016.417.2.7.733.768.475-.5,1-1.023,1.485-1.584q4.42-5.152,8.812-10.327a11.573,11.573,0,0,0,1.254-1.892c.32-.58.165-.946-.489-1.074a14.618,14.618,0,0,0-2.59-.286,37.289,37.289,0,0,0-9.186,1.334c-.817.2-1.633.393-2.454.569a.923.923,0,0,1-1.107-.383.992.992,0,0,1,.147-1.176c.741-.9,1.477-1.8,2.269-2.652a58.661,58.661,0,0,1,4.25-4.382,15.571,15.571,0,0,1,8.317-3.746,14.881,14.881,0,0,1,4.148-.211,2.284,2.284,0,0,1,2.157,2.723,4.249,4.249,0,0,1-.192,1.092,1.066,1.066,0,0,1-.542.592c-.143.05-.406-.224-.606-.366a1.6,1.6,0,0,1-.224-.266,6.389,6.389,0,0,1-.258,1.082c-.1.227-.31.519-.513.555a.838.838,0,0,1-.65-.36c-.694-1.049-1.322-1.592-3.278-1.127A5.156,5.156,0,0,0,187.431-420c-.855.787-1.719,1.566-2.564,2.364a2.269,2.269,0,0,0-.532.84c.256-.016.512-.04.768-.046,2.549-.064,5.1-.207,7.647-.158,1.644.032,2.379,1.2,2.008,2.823a10.073,10.073,0,0,1-2.125,3.987,70.712,70.712,0,0,1-7.021,7.357c-.87.819-1.764,1.612-2.653,2.41a2.833,2.833,0,0,1-.4.257l.086.166c.656.2,1.312.409,1.969.607a69.149,69.149,0,0,0,11.126,2.589,94.36,94.36,0,0,0,10.547.63,86.528,86.528,0,0,0,19.109-1.96C225.877-398.235,226.352-398.375,226.912-398.517Z" transform="translate(0 -109.037)"/>
    <path id="Tracé_2" data-name="Tracé 2" d="M487.013-413.209l-.5-.231c-.53.88-.887.939-1.426.045-.763-1.267-1.418-2.6-2.058-3.94a1.627,1.627,0,0,1-.014-1.075c1.123-3.673,2.329-7.321,3.408-11.007,1.111-3.795,2.105-7.624,3.15-11.438.038-.138.062-.28.1-.476h-2.048l-.284-1.5.639-.438-.026-.12,2.216.1c.06-.2.126-.391.177-.588.52-1.984,1.03-3.97,1.558-5.951a3.54,3.54,0,0,1,2.42-2.534,14.983,14.983,0,0,1,3.468-.82,1.536,1.536,0,0,1,1.484.615c.844,1.042,1.7,2.073,2.521,3.135,1.243,1.613,2.458,3.248,3.678,4.878a5.31,5.31,0,0,1,.34.6l-.126.134-1.974-1.216,1.037,1.54-.127.156a6.285,6.285,0,0,1-.672-.349q-3.352-2.269-6.7-4.55c-.235-.16-.482-.3-.788-.492l-1.685,6.049,1.763.27a85.312,85.312,0,0,1,14.853,3.225,15.883,15.883,0,0,1,2.626,1.1c1.2.67,1.309,1.511.358,2.517a20.211,20.211,0,0,1-4.537,3.456c-4.087,2.4-8.356,4.448-12.636,6.471-2.176,1.028-4.383,1.989-6.579,2.973-.258.116-.535.187-.856.3.024-.127.018-.191.043-.206a20.055,20.055,0,0,1,2.391-1.43,98.412,98.412,0,0,0,16.132-9.039,8.861,8.861,0,0,0,1.63-1.5,1.361,1.361,0,0,0-.129-2.1,5.193,5.193,0,0,0-1.8-1.089,50.976,50.976,0,0,0-5.157-1.3c-2.869-.55-5.76-.984-8.694-1.476-.3,1.118-.58,2.14-.837,3.169q-2.309,9.237-4.6,18.477c-.365,1.473-.676,2.96-1.044,4.432C487.6-414,487.579-413.465,487.013-413.209Z" transform="translate(-256.985 -86.082)"/>
    <path id="Tracé_3" data-name="Tracé 3" d="M300.827-394.163c.5-.48,1.024-.935,1.49-1.444a106.684,106.684,0,0,0,10.128-12.911c.454-.681.747-1.467,1.174-2.168a2.111,2.111,0,0,1,.862-.911c1.439-.537,2.915-.974,4.379-1.443a1.7,1.7,0,0,1,.427-.082c.5-.025.786.331.583.782a7.174,7.174,0,0,1-.682,1.11c-1.4,2.015-2.869,3.984-4.193,6.047a23.729,23.729,0,0,0-3.061,6.566,9.325,9.325,0,0,0-.337,3.978,1.677,1.677,0,0,1-.549,1.57q-1.964,1.909-3.916,3.83c-.311.306-.606.628-.908.943-.262.273-.529.381-.816-.027a6.231,6.231,0,0,1-.661.673,2,2,0,0,1-.58.2c-.048-.2-.181-.426-.132-.6.417-1.459.864-2.91,1.308-4.361a27.236,27.236,0,0,0,.752-2.77c-.122.135-.24.275-.366.406-1.223,1.265-2.395,2.586-3.693,3.768a11.844,11.844,0,0,1-2.276,1.338,9.623,9.623,0,0,1-.955.465,1.745,1.745,0,0,1-2.62-.976,6.006,6.006,0,0,1-.3-5.074c.814-1.86,1.746-3.675,2.73-5.453,1.464-2.642,3.009-5.238,4.54-7.842a4.481,4.481,0,0,1,1.915-2.062c.838-.368,1.709-.661,2.563-.994q1.323-.516,2.64-1.046c.134-.054.254-.171.389-.189.189-.025.457-.055.561.048s.084.379.034.556a1.914,1.914,0,0,1-.315.541q-3.149,4.48-6.306,8.956A28.9,28.9,0,0,0,301.1-396.3a4.591,4.591,0,0,0-.4,2.057Z" transform="translate(-103.442 -118.901)"/>
    <path id="Tracé_4" data-name="Tracé 4" d="M406.966-388.4c.039.538-.3.725-.721.729a9.746,9.746,0,0,1-5.17-1.2,2.5,2.5,0,0,1-1.24-2.7,30.6,30.6,0,0,1,.984-4.483c1.209-3.762,2.5-7.5,3.822-11.222a27.159,27.159,0,0,1,1.544-3.329c.3-.572.59-.683,1.253-.757.354-.616.911-.68,1.624-.7a10.844,10.844,0,0,0,2.421-.579c.211-.056.413-.147.619-.222l.119.1c-.116.207-.229.416-.349.621q-1.612,2.757-3.224,5.514a4.585,4.585,0,0,0-.205.516c.2-.169.3-.24.384-.325a18.869,18.869,0,0,1,6.615-4.112,7.525,7.525,0,0,1,1.651-.352,1.054,1.054,0,0,1,1.168.592,10.061,10.061,0,0,1,1.255,3.99,4.112,4.112,0,0,1-.069.694l-.17.089-1.089-1.172c.03.649.058,1.255.086,1.861l-.2.077a4.473,4.473,0,0,1-.444-.365c-.4-.421-.786-.857-1.182-1.282a1.294,1.294,0,0,0-1.588-.289,10.666,10.666,0,0,0-5.659,5.247,22.69,22.69,0,0,0-2.3,8.305,4.863,4.863,0,0,0,.911,3.436c.186.251.417.757.317.87-.209.234-.624.284-.956.407A1.41,1.41,0,0,1,406.966-388.4Z" transform="translate(-188.896 -119.12)"/>
    <path id="Tracé_5" data-name="Tracé 5" d="M369.017-557.631c.722.686.721.683,1.621.316a5.081,5.081,0,0,1,.5-.143,3.708,3.708,0,0,1,.154.428,4.012,4.012,0,0,1,.05.462l.76-.186.624,5.622.152,0c.089-.707.184-1.414.267-2.123.163-1.4.311-2.793.486-4.187a5.464,5.464,0,0,1,.246-.851l.22-.021.444,1.438.3-.705.17,0a4.379,4.379,0,0,1,.253.736,26.566,26.566,0,0,1,.109,9.685,4.282,4.282,0,0,1-.285.872c-.232.518-.513.587-1,.289a6.585,6.585,0,0,1-3.249-4.539,1.93,1.93,0,0,0-.164-.49,27.79,27.79,0,0,0,.613,5.8c-1.087-.688-2.312-1.258-2.585-2.663a12.107,12.107,0,0,1-.2-2.74c.078-2.114.243-4.226.382-6.338A4.75,4.75,0,0,1,369.017-557.631Z" transform="translate(-163.25)"/>
    <path id="Tracé_6" data-name="Tracé 6" d="M330.536-473.653a4.05,4.05,0,0,1-.49-.095,34.475,34.475,0,0,0-9.689-1.506q-4.092-.112-8.189-.005a20.475,20.475,0,0,0-6.771,1.05,15.357,15.357,0,0,0-2.674,1.524c-.61.387-.714.429-1.323.022-.052-.035-.113-.087-.167-.083-.694.046-.935-.465-1.193-.958-.15-.286-.3-.573-.454-.855-.3-.535-.227-.8.369-.982.8-.241,1.62-.441,2.439-.62a56.741,56.741,0,0,1,14.893-1.085,40.683,40.683,0,0,1,7.443.9,21.919,21.919,0,0,1,5.526,2.3,2.967,2.967,0,0,1,.335.252Z" transform="translate(-106.688 -66.319)"/>
    <path id="Tracé_7" data-name="Tracé 7" d="M299.69-238.789a2.952,2.952,0,0,1,.534.074,34.868,34.868,0,0,0,9.066,1.467,74.358,74.358,0,0,0,10.225-.063,17.992,17.992,0,0,0,5.593-1.073,13.564,13.564,0,0,0,2.274-1.359c.681-.463.68-.37,1.445-.086,1.078.4,1.156,1.44,1.671,2.193.064.093-.082.433-.221.537a2.206,2.206,0,0,1-.759.3,54.831,54.831,0,0,1-15.572,1.6,40.93,40.93,0,0,1-8.987-1.028,17.465,17.465,0,0,1-4.989-2.2,3.143,3.143,0,0,1-.316-.259Z" transform="translate(-106.886 -260.628)"/>
    <path id="Tracé_8" data-name="Tracé 8" d="M454.465-536.2l.171.464c.55.047.573.467.561.885-.059,1.986-.133,3.971-.191,5.957a15.139,15.139,0,0,0,.364,4.379.378.378,0,0,1,.019.144c-.037.272-.079.543-.119.814a3.369,3.369,0,0,1-.967-.3,2.435,2.435,0,0,1-1.081-2.167c0-1.126-.109-2.252-.171-3.371l-2.033-.524c-.289.5-.573.984-.846,1.472-.26.464-.5.941-.769,1.4-.333.564-.751.6-1.2.11-.065-.071-.1-.189-.176-.227-.8-.391-.588-.96-.333-1.588a25.542,25.542,0,0,1,4.435-7.065,3.132,3.132,0,0,1,.671-.622,1.122,1.122,0,0,1,.63-.108,2.088,2.088,0,0,1,.492.19C454.087-536.3,454.26-536.26,454.465-536.2Zm-1.457,6.422V-532.7l-.1-.028-1.468,2.048,1.451.456-.479.292Z" transform="translate(-227.935 -17.82)"/>
    <path id="Tracé_9" data-name="Tracé 9" d="M329.048-537.773c-.095.119-.117.168-.156.192a2.262,2.262,0,0,1-2.454-.574c-.606-1.1-1.175-2.227-1.76-3.342-.045-.085-.092-.169-.156-.287l-1.687.314c-.039.439-.091.882-.115,1.326-.039.693-.04,1.389-.094,2.082-.034.444-.3.606-.74.531a6.9,6.9,0,0,0-.793-.1c-.472-.026-.676-.218-.723-.732a22.983,22.983,0,0,1,.267-5.988c.163-.954.383-1.9.58-2.847.136-.658.407-1.159,1.212-1.081a1.8,1.8,0,0,0,.489-.095l.363.248.667-.112a4.594,4.594,0,0,1,.391.632q1.11,2.633,2.2,5.277a17.208,17.208,0,0,0,2.142,3.895A5.222,5.222,0,0,1,329.048-537.773Zm-4.675-4.348-1.066-2.251-.12.02-.328,2.186,1.125-.21v.311Z" transform="translate(-123.78 -8.14)"/>
    <path id="Tracé_10" data-name="Tracé 10" d="M416.133-549.857c.016,0,.04,0,.047-.006.388-.492.8-.96,1.521-.759a2.773,2.773,0,0,1,2.176,1.784,6.388,6.388,0,0,1,.108,2.878,17.87,17.87,0,0,1-1.664,5.685,4.325,4.325,0,0,1-.332.533,2.136,2.136,0,0,1-3.812-.356,9.071,9.071,0,0,1-.576-2.819,16.586,16.586,0,0,1,.942-6.52,1.714,1.714,0,0,1,.983-1.237l.234.332.543-.066c-.071.244-.117.4-.16.561a10.284,10.284,0,0,0-.436,1.432,27.142,27.142,0,0,0-.272,5.943,8.966,8.966,0,0,0,.322,1.4c1.536-.846,2.751-6.822,1.744-8.077l-.668.4-.107-.442-.532.257Z" transform="translate(-200.178 -6.253)"/>
    <path id="Tracé_11" data-name="Tracé 11" d="M278.068-532.07l-.691-.549-.064.087a5.84,5.84,0,0,1-.832-.571,12.371,12.371,0,0,1-.855-1,1.243,1.243,0,0,0-1.161,1.363,7.3,7.3,0,0,0,.385,1.927,12.278,12.278,0,0,0,1.655,3.321.807.807,0,0,0,.834-.706,10.936,10.936,0,0,0,.1-1.715,4.337,4.337,0,0,0-.077-.633c.591-.337.783.164,1.083.448.524-.086.807.228.958.675a5.225,5.225,0,0,1,.185,2.819,1.942,1.942,0,0,1-2.672,1.259,5.863,5.863,0,0,1-3.208-2.211,9.4,9.4,0,0,1-1.755-6.066c.193-2.213,2.053-3.02,3.956-1.89a5.487,5.487,0,0,1,2.316,2.5C278.354-532.724,278.519-532.377,278.068-532.07Z" transform="translate(-84.171 -18.255)"/>
    <path id="Tracé_12" data-name="Tracé 12" d="M470.4-186.712a3.861,3.861,0,0,1,.4.617c.448,1.088.874,2.185,1.339,3.355.16-.2.307-.362.423-.542.665-1.031,1.311-2.075,1.991-3.1a10.03,10.03,0,0,1,.816-.954l.215.076c.015.267.053.535.042.8-.054,1.322-.175,2.644-.169,3.965a29.576,29.576,0,0,0,.82,6.037,2.64,2.64,0,0,1,.053.333.752.752,0,0,1-.024.177,1.033,1.033,0,0,1-1.505-.63,15.133,15.133,0,0,1-.4-2.186c-.165-1.411-.283-2.828-.423-4.242-.013-.126-.038-.251-.076-.493a21.987,21.987,0,0,0-1.76,4.213,13.482,13.482,0,0,1-1.616-3.8l-1.2,5.584a5.5,5.5,0,0,1-1.068-.273.656.656,0,0,1-.2-.57c.259-1.346.536-2.689.846-4.024.288-1.241.614-2.474.946-3.7a3.028,3.028,0,0,1,.35-.639Z" transform="translate(-244.796 -303.815)"/>
    <path id="Tracé_13" data-name="Tracé 13" d="M226.95-161.432c-.616.536-1.239.547-1.674.023-.649-.782-1.265-1.6-1.846-2.43-.923-1.325-1.8-2.68-2.706-4.02-.095-.141-.206-.272-.4-.53a15.34,15.34,0,0,0-.255,3.373c.768.248,1.4-.122,2.169-.266-.549.812-1.433.7-2.156,1.089.048.7.1,1.435.148,2.17.022.322.048.644.071.967.028.383-.077.674-.51.74a.679.679,0,0,1-.861-.569c-.14-.663-.272-1.331-.348-2a23.7,23.7,0,0,1,.221-7.093.807.807,0,0,1,.8-.741c.981-.131.992-.172,1.506.672.958,1.572,1.846,3.19,2.861,4.723.745,1.124,1.649,2.143,2.48,3.211C226.617-161.9,226.776-161.669,226.95-161.432Z" transform="translate(-40.353 -317.359)"/>
    <path id="Tracé_14" data-name="Tracé 14" d="M267.933-176.989c-.223-.23-.449-.471-.684-.7a10.248,10.248,0,0,0-1.213-1.166.9.9,0,0,0-1.434.43,2.316,2.316,0,0,0-.038,1.934c.478,1.212,1.03,2.4,1.594,3.571a2.375,2.375,0,0,0,.7.79.829.829,0,0,0,1.355-.346,2.972,2.972,0,0,0,.145-1.9c-.04-.2-.062-.4-.09-.585.491-.225.871-.114,1.011.418a8.242,8.242,0,0,1,.334,2.277,2.006,2.006,0,0,1-2.946,1.918,3.547,3.547,0,0,1-1.368-.876,8.79,8.79,0,0,1-2.405-6.919c.152-1.564.817-2.32,2.585-2.3a2.068,2.068,0,0,1,1.082.355,4.593,4.593,0,0,1,1.712,2.345A.526.526,0,0,1,267.933-176.989Z" transform="translate(-76.742 -309.457)"/>
    <path id="Tracé_15" data-name="Tracé 15" d="M413.882-181.394c2.061.157,4.071-.081,5.989.489l.016.2a1.612,1.612,0,0,1-.441.171c-.692.051-1.393.023-2.077.122-1.307.189-2.61.423-3.906.68-1.108.22-1.3.1-1.186-1.009.243-2.36.523-4.717.79-7.074a2.99,2.99,0,0,1,.085-.378c.2-.8.4-.995,1.211-.9a22.294,22.294,0,0,1,5.652,1.26,5.283,5.283,0,0,1,.779.463l-.057.152a1.759,1.759,0,0,1-.354.043q-2.463-.2-4.926-.413c-1.1-.093-1.2-.005-1.216,1.093,0,.111,0,.223,0,.325,1.591.759,3.418.652,4.967,1.436l-.032.185-.519-.026c-1.207-.059-2.413-.162-3.62-.161-.721,0-.82.143-.913.858C414.021-183.07,413.964-182.254,413.882-181.394Z" transform="translate(-199.097 -302.356)"/>
    <path id="Tracé_16" data-name="Tracé 16" d="M364.886-181a2.864,2.864,0,0,1-.283-1.669c.012-.116.274-.256.443-.3a8.47,8.47,0,0,0,3.076-1.593,5.563,5.563,0,0,0,1-1.037,1.134,1.134,0,0,0-.076-1.592,7.855,7.855,0,0,0-4.35-1.944,22.526,22.526,0,0,0-.413,4.384c.029,1.441.167,2.881.258,4.332-.447.084-.566-.233-.625-.489a16.255,16.255,0,0,1-.482-2.515c-.129-1.867-.164-3.741-.231-5.612a3.63,3.63,0,0,1,.046-.579c.087-.687.354-.93,1.037-.814,1.254.213,2.512.425,3.743.737a3.958,3.958,0,0,1,2.055,1.475,2.187,2.187,0,0,1,.334,2.364,6.231,6.231,0,0,1-2.23,2.689C367.137-182.424,366.038-181.748,364.886-181Z" transform="translate(-158.933 -301.258)"/>
    <path id="Tracé_17" data-name="Tracé 17" d="M315.042-180.2c-.047.932-.09,1.865-.143,2.8-.037.642-.292.836-.863.692a.621.621,0,0,1-.462-.706c.018-1.435-.035-2.879.115-4.3a36.2,36.2,0,0,1,.765-3.789c.118-.547.4-.907,1.04-.827a2.658,2.658,0,0,0,.652-.1,9.672,9.672,0,0,1,.514.89c.776,1.72,1.493,3.469,2.319,5.164.47.965,1.11,1.848,1.672,2.768.145.238.283.48.414.7a.961.961,0,0,1-1.494-.058,11.816,11.816,0,0,1-.89-1.439c-.859-1.645-1.694-3.3-2.541-4.953-.1-.191-.212-.375-.319-.562l-.183.008-.529,2.884c.7.4,1.334.059,2.067.059C316.575-180.289,315.762-180.5,315.042-180.2Z" transform="translate(-118.286 -304.548)"/>
    <path id="Tracé_18" data-name="Tracé 18" d="M526.07-179.624c-.753,1.851-.2,3.477.525,5.237,1.507-1.3,3.078-2.4,3.811-4.288a.8.8,0,0,1,.843.528.9.9,0,0,1-.138.741c-.633.836-1.285,1.659-1.981,2.443-1.383,1.557-2.793,3.09-4.2,4.621a8.222,8.222,0,0,1-.934.842,1.233,1.233,0,0,1-1.728-.072c.157-.194.3-.394.468-.575.68-.735,1.361-1.468,2.052-2.192a1.64,1.64,0,0,0,.438-1.643c-.3-1.2-.611-2.409-.85-3.626a1.437,1.437,0,0,1,1.1-1.942A4.351,4.351,0,0,1,526.07-179.624Z" transform="translate(-289.194 -310.128)"/>
  </g>
</svg>
