<svg xmlns="http://www.w3.org/2000/svg" width="299.644" height="259.733" viewBox="0 0 299.644 259.733">
  <path id="main" d="M987.942,930.168c-9.432-24.353-6.775-32.61,12.371-41.237-2.442-19.03,10.714-26.647,25.587-32.355.708-19.233,20.868-28.043,36.248-27.028,13.2.874,26.123,6.281,39.075,10.009,10.778,3.1,21.42,6.675,33.623,10.51.529-5.856,1.044-9.09,1.078-12.33.146-13.264-.259-26.544.29-39.786.906-21.88,22.1-43.279,43.56-44.613,7.411-.46,13.188,4.6,10.472,11.3-9.7,23.928,2.784,47.656-.546,71.374a4.76,4.76,0,0,0,.36,2.726c15.515,29.2,3.806,60.442,5.658,90.579,1.614,26.232-17.713,45.943-37.385,62.067-27.891,22.864-58.785,28.689-92.224,12.33-11.349-5.552-22.066-12.81-33.9-16.863-24.4-8.354-49.418-14.9-74.072-22.54-11.462-3.548-22.729-7.771-33.972-11.978a70.6,70.6,0,0,1-11.514-5.88c-11.457-6.924-16.193-15.287-13.18-22.816,2.708-6.775,18.047-13.688,27.286-11.6,6.579,1.486,12.85,4.291,19.344,6.2C959.567,922.2,973.1,925.952,987.942,930.168Zm-44.768,17.6c2.515-7.42,5.03-14.839,7.987-23.559-9.4-3.075-17.34-6.612-25.638-7.974-3.925-.643-11.332,2.035-12.154,4.73-1.144,3.759,1.033,10.9,4.218,13.139,7.877,5.528,17.136,9.09,25.839,13.443,7.344,2.947,14.693,5.9,22.354,8.972,3.834-6.415,7.075-11.84,10.316-17.26l2.577,1.133c-1.334,5.469-2.667,10.941-4.274,17.537,8.053,1.886,15.914,3.731,24.3,5.7,1.582-8.347,2.961-15.6,4.336-22.857l3.472.335c-.36,7.6-.716,15.195-1.1,23.5l20.366,6.419c6.751-5.894,13.108-11.446,19.468-16.994q1.276,1.119,2.557,2.239c-4.717,5.583-9.429,11.17-14.936,17.7,15.252,7.708,29.594,15.36,44.281,22.287,30.752,14.5,59.268,11.867,84.253-12.527,21.379-20.875,35.972-44.278,30.614-76.343-1.737-10.392-.847-21.648,1.079-32.1a42.839,42.839,0,0,0-2.761-25.062,70.048,70.048,0,0,1-4.553-18.591c-1.24-11.619-1.977-23.331-2.184-35.015-.151-8.751.856-17.526,1.344-26.288.221-4.028.432-8.056.643-12.026-22.65-1.707-40.293,20.863-34.883,42.854,7.061-.436,14.213-.871,21.364-1.309q.141,1.782.281,3.566c-7.473,1.6-14.95,3.2-22.375,4.795-.891,15.329-1.7,29.363-2.581,44.454,6.516,3.327,13.412,6.844,20.3,10.361-3.606,1.517-7.307,1.9-9.621.284-12.672-8.82-27.2-11.613-41.928-14.106-2.988-.5-5.791-2.081-8.7-3.114-10.737-3.828-21.233-8.955-32.3-11.024a59.422,59.422,0,0,0-26.893,1.493c-8.975,2.664-12.088,17.613-5.366,23.164,10.582,8.745,22.2,16.245,32.642,23.746,5.034-5.68,8.993-10.151,12.95-14.617l1.983,1.934c-2.719,4.9-5.439,9.8-8.724,15.727l17.208,8.775c6.24-6.62,11.4-12.1,16.807-17.838-11.9-11.356-30.295-18.438-38.932-35.509q.936-1.025,1.871-2.052l17.735,16.425c2.69-1.914,4.83-3.437,7.707-5.486-.51,4.074-.846,6.771-1.451,11.591l8.278-10.693,2.021,1.078c-1.285,3.866-2.57,7.731-3.547,10.665,6.139,7.238,13.667,13.108,16.98,20.8,4.028,9.342-.947,17.731-10.358,22.14,6.775,16.852,4.353,21.554-12.779,26.067-1.669,20.639-11.611,28.288-30.658,20.338-35.828-14.952-74.163-17.423-111.472-25.01-1.112-.224-2.377.287-1.666.187C953.355,935.4,948.26,941.587,943.174,947.763ZM1079,922.975a12.2,12.2,0,0,0-1.952-1.2q-30.788-14.748-61.6-29.442c-9.556-4.557-18.631.8-19.941,11.739-1.243,10.406,4.906,22.257,14.821,25.262,21.068,6.384,42.426,11.815,61.511,17.046C1074.023,939.247,1076.306,931.778,1079,922.975Zm19.623-20.1q-27.02-17.558-54.061-35.088a49,49,0,0,0-9.657-5.251c-9.441-3.4-16.233.024-20.5,9.861-3.331,7.677-1.346,13.28,7.763,17.809,16.8,8.354,33.872,16.162,50.893,24.06,4.613,2.143,9.453,3.8,13.748,5.5C1091.464,913.1,1095.288,907.635,1098.621,902.871Zm-22.764,37.837q1.1,2.43,2.2,4.865c5.316,0,10.81.739,15.841-.463,1.447-.345,3.268-7.5,1.917-9.366-2.343-3.236-8.417-7.5-10.43-6.47C1081.326,931.356,1078.936,936.7,1075.858,940.709Zm26.579-34.158-9.391,11.166,15.82,5.866C1113.661,915.219,1108.794,911.8,1102.436,906.551Zm5.414-10.9c5.659,2.277,10.841,4.553,13.211-2.615.66-1.994-1.866-7.111-3.606-7.466C1110.921,884.246,1108.475,888.616,1107.85,895.651Z" transform="translate(-898.58 -753.309)"/>
</svg>
