<svg xmlns="http://www.w3.org/2000/svg" width="1291.694" height="1464.781" viewBox="0 0 1291.694 1464.781">
  <path id="palmier" d="M1768.818-725.52l-2.032,4.633c3.423,3.9,6.562,8.1,10.323,11.634,12.574,11.827,25.888,22.909,37.971,35.207,23.148,23.553,40.375,51.177,53.231,82.113-43.87-55.549-98-94.181-169.506-106.684,6.6,31.823,33.968,51.511,45.872,82.953-4.757-4.108-7.16-6.621-9.97-8.537-17.1-11.66-33.667-24.3-51.645-34.432-17.249-9.717-36.24-8.608-52.76,2.211-17.663,11.569-34.055,25.1-50.77,38.07-2.742,2.128-4.287,5.8-6.385,8.753l1.54,3.545c5.4-.448,11.115.089,16.155-1.5,36.721-11.587,73.305-10.66,108.334,4.474,62.987,27.212,125.771,55,187.69,84.541,50.854,24.259,98.42,54.256,136.741,96.531a956.475,956.475,0,0,1,110.441,149.3c4.068,6.753,7.541,13.863,11.29,20.807-16.7-16.645-31.193-34.646-46.792-51.632-15.645-17.037-31.964-33.515-48.775-49.4-16.414-15.515-27.3-36.558-48.006-50.928-9.018,20.547,6.2,34.864,5.616,51.511-9.852-15.583-18.113-32.032-27.975-47.459-12.83-20.077-26.675-39.528-40.686-58.809-3.071-4.226-8.681-6.607-13.122-9.836l-4.375,2.733,22.123,64.464c-31.268-35.646-60.652-69.3-90.307-102.714-2.969-3.345-7.588-5.226-11.441-7.786l-3.461,2.694c.991,30.747,21.748,55.679,27.87,85.977-15.822-24.572-30.369-48.76-46.623-71.743-8.254-11.672-19.408-21.347-29.658-31.514-2.191-2.173-6.151-2.563-11.555-4.647,3.1,11.476,5.805,19.956,7.617,28.621a262.212,262.212,0,0,1,4.06,26.754c.871,8.447.948,16.976,1.373,25.468-21.724-41.008-42.988-80.96-87.465-102.017a27.9,27.9,0,0,0,1.933,14.6c5.34,12.645,12,24.806,16.445,37.738,5.811,16.895,10,34.346,14.891,51.559l-3.645,1.139c-10.732-20.859-21.189-41.867-32.277-62.535-11.555-21.536-24.572-42.178-44.507-57.134-4.8-3.6-11.08-5.223-16.679-7.754l-4.052,3.1c.739,37.27,13.689,72.873,18.188,109.8-.973-.412-1.967-.506-2.265-1.01-9.977-16.881-19.585-33.99-29.894-50.665-10.508-17-20.86-34.2-32.849-50.138-9.938-13.209-18.12-11.9-25.1,3.136-10.245,22.051-18.749,44.924-29.335,66.8-27.332,56.472-54.941,112.818-83.263,168.8C1387.627-198.8,1311.519-81.139,1215.867,23.2c-15.8,17.229-32.663,33.475-48.078,49.2L1033.974,18.9c36.5-28.46,72.516-56.777,108.784-84.777,61.444-47.437,117.943-99.826,165.994-161.139,55.969-71.415,100.924-149.5,141.658-230.214,9.9-19.61,20.575-39.1,27.685-59.743,4.395-12.762,9.326-21.759,20.756-30.085,24.327-17.723,20.347-40.355-7.606-50.469-12.934-4.679-26.632-7.248-43.278-11.643,18.515-3.4,34.062-7.362,49.841-8.829,15.419-1.432,31.074-.311,46.627-.311l.92-5.044c-21.157-16.7-46.3-25.045-73.413-32.831,3.946-4.635,8.181-8.788,13.21-10.3,16.325-4.9,32.953-6.8,49.947-2.52,4.452,1.122,9.427.169,14.163.169l.725-4.994c-14.663-16-35.151-20.941-55.652-25.951,2.3-10.607,9.955-13.205,17.618-14.184,11.253-1.436,22.7-1.3,34.025-2.248,3.979-.33,7.859-1.858,11.782-2.838l.46-4.687L1512.19-746.35c8.989-22.329,33.158-8.242,47.205-18.659-3.146-14.035-18.867-9.48-26.928-19.436l29.856-66.492,4.851,1.189c1.255,14.315,2.257,28.659,3.834,42.939,1.638,14.814,3.886,29.559,5.766,44.349,1.832,14.393,3.39,28.823,5.337,43.2,1.879,13.874-6.441,28.518,4.037,42.139,37.924-79.972,41.435-164.911,37.815-252.614,5.514,10.921,12.741,20.452,15.2,31.086,5.257,22.773,8,46.122,11.885,69.216,1.036,6.144,2.5,12.216,3.772,18.321l4.034.6c2.243-3.153,5.783-6.033,6.516-9.5,4.538-21.464,11.7-43.038,11.87-64.622.322-42.256-3.195-84.552-5.479-126.814-1.381-25.573-3.433-51.11-5.185-76.662l2.942-.392c2.538,9.707,4.877,19.471,7.65,29.109,9.1,31.636,18.106,63.3,27.857,94.739,1.238,3.995,6.675,6.688,10.167,9.984,3.242-3.92,7.937-7.343,9.468-11.844,6.119-17.978,4.023-35.978.5-54.515-7.469-39.286-12.889-78.956-19.6-118.391-2.48-14.568-6.225-28.921-9.395-43.371a11.706,11.706,0,0,1,4.959,6.334c12.53,35.915,24.9,71.883,37.555,107.756,1.664,4.718,4.662,8.967,7.043,13.433h3.985c2.608-4.428,6.771-8.608,7.527-13.334,2.088-13.067,5.464-26.79,3.464-39.486-5.486-34.807-13.607-69.193-20.419-103.8-5.3-26.9-10.193-53.878-15.268-80.823a8.058,8.058,0,0,1,4.034,4.736c9.545,29.4,18.98,58.844,28.547,88.242,2.492,7.658,5.345,15.2,8.033,22.79l5.586-.283c1.773-4.675,4.412-9.212,5.184-14.046A786.282,786.282,0,0,0,1786-1346.136c-.578-14.925-1.473-29.837-2.3-46.242,5.645,9.344,1.634,22.242,16.427,26.945,1.9-8.516,3.519-15.808,5.142-23.1l1.593.138v143.832q1.192,1.137,2.382,2.273c3.069-3.239,7.326-5.96,9.01-9.806,9.16-20.929,17.688-42.133,26.433-63.245-3.158,30.333-6.845,60.51-15.4,89.236-8.006,26.875-21.2,52.2-32.049,78.233-2.41,5.786-4.534,11.691-7.648,19.77,5.92-.732,9.13-.156,10.887-1.49,28.443-21.587,37.642-56.727,57.984-82.942-12.818,64.252-48.083,119.072-80.613,176.329,5.079-.4,9.493-1.9,12.089-4.946,16.054-18.849,31.7-38.048,47.48-57.131l3.589,2.388c-27.795,46.362-55.588,92.724-85.042,141.853,37.406-3.153,58.9-28.991,85.79-45.879a223.1,223.1,0,0,1-34.386,34.906c-25.173,20.662-50.977,40.556-76.273,61.073-4.038,3.274-6.784,8.137-10.128,12.266q1.756,2.294,3.511,4.586c29.662-10.144,56.206-27.506,84.938-40.217-28.8,32.894-57.365,65.73-94.316,89.828-4.2,2.738-7.269,7.2-12.925,12.971,29.394,7.135,49.207-10.065,72.19-14.853-50.007,44.754-98.774,90.22-143.063,141.078a26.486,26.486,0,0,0,14.439-3.508c15.986-9.128,31.162-19.922,47.779-27.651,46.194-21.486,95.458-33.44,145.155-43.5,114.948-23.265,227.957-19.505,337.734,25.524,41.174,16.891,79.328,38.1,104.286,77.083,13.967,21.815,28.113,43.515,42.108,65.31a48.13,48.13,0,0,1,2.866,6.2c-17.714-13.888-33.859-28.762-50.322-43.275q-41.933-36.967-84.31-73.428c-3.541-3.033-8.823-4.031-13.3-5.973l-4.006,4.221c11.1,18.427,23.325,36.285,32.984,55.438,9.947,19.726,17.391,40.713,25.931,61.148-3.724.577-4.828.052-5.5-.811-45.041-58.306-102.586-103.571-157.942-151.091-3.51-3.013-8.786-3.972-15.069-6.672-.5,15.7,9.609,21.584,15.576,29.756,17.762,24.324,36.651,47.908,53.027,73.125,8.593,13.235,12.853,29.281,19.069,44.057l-3.461,1.632c-1.7-2.013-3.31-4.112-5.117-6.023-25.6-27.088-50.021-55.445-77.24-80.8-20.81-19.384-44.989-35.21-68.123-51.995-3.951-2.867-10.179-2.6-15.354-3.776q-.893,2.2-1.784,4.409c13.555,15.505,28.156,30.24,40.375,46.734,12.339,16.654,22.809,34.771,33.192,52.768,10.114,17.53,19.082,35.722,28.553,53.623l-2.826,1.967c-52.425-72.457-114.262-132.179-205.215-153.252.587,5.111,1.819,9.609,4.451,13.031a176.864,176.864,0,0,0,17.038,19.467c35.076,33.887,62.2,73.693,86.388,115.655,5.925,10.281,10.51,21.337,15.71,32.036l-2.717,1.921c-6.843-6.221-13.887-12.237-20.494-18.7-30.853-30.167-60.822-61.286-92.6-90.436-24.95-22.887-52.962-42.024-86.3-51.249C1780.86-726.811,1774.661-725.52,1768.818-725.52Z" transform="translate(-1033.974 1392.378)"/>
</svg>
