<svg xmlns="http://www.w3.org/2000/svg" width="1696" height="896" viewBox="0 0 1696 896">
  <g id="triangles" transform="translate(80.424 -0.544)" opacity="0.74">
    <g id="Groupe_4" data-name="Groupe 4" transform="translate(-80 0.172)">
      <path id="Polygone_1" data-name="Polygone 1" d="M73.5,0,147,128H0Z" transform="translate(73.576 0.372)" fill="#fff"/>
      <path id="Polygone_1-2" data-name="Polygone 1" d="M74,0l74,128H0Z" transform="translate(220.576 0.372)" fill="#fff"/>
      <path id="Polygone_1-3" data-name="Polygone 1" d="M73.5,0,147,128H0Z" transform="translate(368.576 0.372)" fill="#fff"/>
      <path id="Polygone_1-4" data-name="Polygone 1" d="M74,0l74,128H0Z" transform="translate(515.577 0.372)" fill="#fff"/>
      <path id="Polygone_1-5" data-name="Polygone 1" d="M73.5,0,147,128H0Z" transform="translate(663.576 0.372)" fill="#fff"/>
      <path id="Polygone_1-6" data-name="Polygone 1" d="M74,0l74,128H0Z" transform="translate(810.577 0.372)" fill="#fff"/>
      <path id="Polygone_1-7" data-name="Polygone 1" d="M73.5,0,147,128H0Z" transform="translate(958.576 0.372)" fill="#fff"/>
      <path id="Polygone_1-8" data-name="Polygone 1" d="M74,0l74,128H0Z" transform="translate(1105.577 0.372)" fill="#fff"/>
      <path id="Polygone_1-9" data-name="Polygone 1" d="M73.5,0,147,128H0Z" transform="translate(1253.577 0.372)" fill="#fff"/>
      <path id="Polygone_1-10" data-name="Polygone 1" d="M74,0l74,128H0Z" transform="translate(1400.577 0.372)" fill="#fff"/>
      <path id="Polygone_1-11" data-name="Polygone 1" d="M73.5,0,147,128H0Z" transform="translate(1548.577 0.372)" fill="#fff"/>
      <path id="Polygone_1-12" data-name="Polygone 1" d="M73.75,0,147.5,127.687H0Z" transform="translate(0.367 128.421)" fill="#fff"/>
      <path id="Polygone_1-13" data-name="Polygone 1" d="M73.75,0,147.5,127.687H0Z" transform="translate(147.867 128.421)" fill="#fff"/>
      <path id="Polygone_1-14" data-name="Polygone 1" d="M74,0l74,128H0Z" transform="translate(294.576 128.372)" fill="#fff"/>
      <path id="Polygone_1-15" data-name="Polygone 1" d="M73.5,0,147,128H0Z" transform="translate(442.577 128.372)" fill="#fff"/>
      <path id="Polygone_1-16" data-name="Polygone 1" d="M74,0l74,128H0Z" transform="translate(589.576 128.372)" fill="#fff"/>
      <path id="Polygone_1-17" data-name="Polygone 1" d="M73.5,0,147,128H0Z" transform="translate(737.577 128.372)" fill="#fff"/>
      <path id="Polygone_1-18" data-name="Polygone 1" d="M74,0l74,128H0Z" transform="translate(884.577 128.372)" fill="#fff"/>
      <path id="Polygone_1-19" data-name="Polygone 1" d="M73.5,0,147,128H0Z" transform="translate(1032.577 128.372)" fill="#fff"/>
      <path id="Polygone_1-20" data-name="Polygone 1" d="M74,0l74,128H0Z" transform="translate(1179.577 128.372)" fill="#fff"/>
      <path id="Polygone_1-21" data-name="Polygone 1" d="M73.75,0,147.5,127.687H0Z" transform="translate(1327.136 128.421)" fill="#fff"/>
      <path id="Polygone_1-22" data-name="Polygone 1" d="M73.75,0,147.5,127.687H0Z" transform="translate(1474.636 128.421)" fill="#fff"/>
      <path id="Polygone_1-23" data-name="Polygone 1" d="M73.5,0,147,128H0Z" transform="translate(73.576 256.372)" fill="#fff"/>
      <path id="Polygone_1-24" data-name="Polygone 1" d="M74,0l74,128H0Z" transform="translate(220.576 256.372)" fill="#fff"/>
      <path id="Polygone_1-25" data-name="Polygone 1" d="M73.5,0,147,128H0Z" transform="translate(368.576 256.372)" fill="#fff"/>
      <path id="Polygone_1-26" data-name="Polygone 1" d="M74,0l74,128H0Z" transform="translate(515.577 256.372)" fill="#fff"/>
      <path id="Polygone_1-27" data-name="Polygone 1" d="M73.5,0,147,128H0Z" transform="translate(663.576 256.372)" fill="#fff"/>
      <path id="Polygone_1-28" data-name="Polygone 1" d="M74,0l74,128H0Z" transform="translate(810.576 256.372)" fill="#fff"/>
      <path id="Polygone_1-29" data-name="Polygone 1" d="M73.5,0,147,128H0Z" transform="translate(958.576 256.372)" fill="#fff"/>
      <path id="Polygone_1-30" data-name="Polygone 1" d="M74,0l74,128H0Z" transform="translate(1105.577 256.372)" fill="#fff"/>
      <path id="Polygone_1-31" data-name="Polygone 1" d="M73.5,0,147,128H0Z" transform="translate(1253.577 256.372)" fill="#fff"/>
      <path id="Polygone_1-32" data-name="Polygone 1" d="M74,0l74,128H0Z" transform="translate(1400.577 256.372)" fill="#fff"/>
      <path id="Polygone_1-33" data-name="Polygone 1" d="M73.5,0,147,128H0Z" transform="translate(1548.577 256.372)" fill="#fff"/>
      <path id="Polygone_1-34" data-name="Polygone 1" d="M74.5,0,149,129H0Z" transform="translate(-0.424 384.371)" fill="#fff"/>
      <path id="Polygone_1-35" data-name="Polygone 1" d="M73,0l73,129H0Z" transform="translate(148.576 384.371)" fill="#fff"/>
      <path id="Polygone_1-36" data-name="Polygone 1" d="M74,0l74,129H0Z" transform="translate(294.576 384.371)" fill="#fff"/>
      <path id="Polygone_1-37" data-name="Polygone 1" d="M73.5,0,147,129H0Z" transform="translate(442.577 384.371)" fill="#fff"/>
      <path id="Polygone_1-38" data-name="Polygone 1" d="M74,0l74,129H0Z" transform="translate(589.576 384.371)" fill="#fff"/>
      <path id="Polygone_1-39" data-name="Polygone 1" d="M73.5,0,147,129H0Z" transform="translate(737.576 384.371)" fill="#fff"/>
      <path id="Polygone_1-40" data-name="Polygone 1" d="M74,0l74,129H0Z" transform="translate(884.576 384.371)" fill="#fff"/>
      <path id="Polygone_1-41" data-name="Polygone 1" d="M73.5,0,147,129H0Z" transform="translate(1032.576 384.371)" fill="#fff"/>
      <path id="Polygone_1-42" data-name="Polygone 1" d="M74,0l74,129H0Z" transform="translate(1179.577 384.371)" fill="#fff"/>
      <path id="Polygone_1-43" data-name="Polygone 1" d="M73.5,0,147,129H0Z" transform="translate(1327.577 384.371)" fill="#fff"/>
      <path id="Polygone_1-44" data-name="Polygone 1" d="M74,0l74,129H0Z" transform="translate(1474.577 384.371)" fill="#fff"/>
      <path id="Polygone_1-45" data-name="Polygone 1" d="M73.5,0,147,128H0Z" transform="translate(73.576 513.372)" fill="#fff"/>
      <path id="Polygone_1-46" data-name="Polygone 1" d="M74,0l74,128H0Z" transform="translate(220.576 513.372)" fill="#fff"/>
      <path id="Polygone_1-47" data-name="Polygone 1" d="M73.5,0,147,128H0Z" transform="translate(368.576 513.372)" fill="#fff"/>
      <path id="Polygone_1-48" data-name="Polygone 1" d="M74,0l74,128H0Z" transform="translate(515.577 513.372)" fill="#fff"/>
      <path id="Polygone_1-49" data-name="Polygone 1" d="M73.5,0,147,128H0Z" transform="translate(663.576 513.372)" fill="#fff"/>
      <path id="Polygone_1-50" data-name="Polygone 1" d="M74,0l74,128H0Z" transform="translate(810.576 513.372)" fill="#fff"/>
      <path id="Polygone_1-51" data-name="Polygone 1" d="M73.5,0,147,128H0Z" transform="translate(958.576 513.372)" fill="#fff"/>
      <path id="Polygone_1-52" data-name="Polygone 1" d="M74,0l74,128H0Z" transform="translate(1105.577 513.372)" fill="#fff"/>
      <path id="Polygone_1-53" data-name="Polygone 1" d="M73.5,0,147,128H0Z" transform="translate(1253.577 513.372)" fill="#fff"/>
      <path id="Polygone_1-54" data-name="Polygone 1" d="M74,0l74,128H0Z" transform="translate(1400.577 513.372)" fill="#fff"/>
      <path id="Polygone_1-55" data-name="Polygone 1" d="M73.5,0,147,128H0Z" transform="translate(1548.577 513.372)" fill="#fff"/>
      <path id="Polygone_1-56" data-name="Polygone 1" d="M74.5,0,149,127H0Z" transform="translate(-0.424 641.372)" fill="#fff"/>
      <path id="Polygone_1-57" data-name="Polygone 1" d="M73,0l73,127H0Z" transform="translate(148.576 641.372)" fill="#fff"/>
      <path id="Polygone_1-58" data-name="Polygone 1" d="M74,0l74,127H0Z" transform="translate(294.576 641.372)" fill="#fff"/>
      <path id="Polygone_1-59" data-name="Polygone 1" d="M73.5,0,147,127H0Z" transform="translate(442.577 641.372)" fill="#fff"/>
      <path id="Polygone_1-60" data-name="Polygone 1" d="M74,0l74,127H0Z" transform="translate(589.576 641.372)" fill="#fff"/>
      <path id="Polygone_1-61" data-name="Polygone 1" d="M73.5,0,147,127H0Z" transform="translate(737.576 641.372)" fill="#fff"/>
      <path id="Polygone_1-62" data-name="Polygone 1" d="M74,0l74,127H0Z" transform="translate(884.576 641.372)" fill="#fff"/>
      <path id="Polygone_1-63" data-name="Polygone 1" d="M73.5,0,147,127H0Z" transform="translate(1032.576 641.372)" fill="#fff"/>
      <path id="Polygone_1-64" data-name="Polygone 1" d="M74,0l74,127H0Z" transform="translate(1179.577 641.372)" fill="#fff"/>
      <path id="Polygone_1-65" data-name="Polygone 1" d="M73.5,0,147,127H0Z" transform="translate(1327.577 641.372)" fill="#fff"/>
      <path id="Polygone_1-66" data-name="Polygone 1" d="M74,0l74,127H0Z" transform="translate(1474.577 641.372)" fill="#fff"/>
      <path id="Polygone_1-67" data-name="Polygone 1" d="M73.5,0,147,128H0Z" transform="translate(73.576 768.372)" fill="#fff"/>
      <path id="Polygone_1-68" data-name="Polygone 1" d="M74,0l74,128H0Z" transform="translate(220.576 768.372)" fill="#fff"/>
      <path id="Polygone_1-69" data-name="Polygone 1" d="M73.5,0,147,128H0Z" transform="translate(368.576 768.372)" fill="#fff"/>
      <path id="Polygone_1-70" data-name="Polygone 1" d="M74,0l74,128H0Z" transform="translate(515.577 768.372)" fill="#fff"/>
      <path id="Polygone_1-71" data-name="Polygone 1" d="M73.5,0,147,128H0Z" transform="translate(663.576 768.372)" fill="#fff"/>
      <path id="Polygone_1-72" data-name="Polygone 1" d="M74,0l74,128H0Z" transform="translate(810.576 768.372)" fill="#fff"/>
      <path id="Polygone_1-73" data-name="Polygone 1" d="M73.5,0,147,128H0Z" transform="translate(958.576 768.372)" fill="#fff"/>
      <path id="Polygone_1-74" data-name="Polygone 1" d="M74,0l74,128H0Z" transform="translate(1105.577 768.372)" fill="#fff"/>
      <path id="Polygone_1-75" data-name="Polygone 1" d="M73.5,0,147,128H0Z" transform="translate(1253.577 768.372)" fill="#fff"/>
      <path id="Polygone_1-76" data-name="Polygone 1" d="M74,0l74,128H0Z" transform="translate(1400.577 768.372)" fill="#fff"/>
      <path id="Polygone_1-77" data-name="Polygone 1" d="M73.5,0,147,128H0Z" transform="translate(1548.577 768.372)" fill="#fff"/>
    </g>
  </g>
</svg>
