<svg xmlns="http://www.w3.org/2000/svg" width="191.236" height="30.386" viewBox="0 0 191.236 30.386">
  <path id="underline" d="M490.314-454.782a24.8,24.8,0,0,1-3.008-.581c-19.323-6.219-39.269-8.688-59.432-9.238q-25.1-.686-50.229-.031c-14.064.385-28.232,1.4-41.534,6.443-5.818,2.207-11.088,5.972-16.4,9.349-3.74,2.375-4.381,2.632-8.114.132-.319-.213-.694-.532-1.024-.511-4.26.283-5.736-2.853-7.319-5.877-.918-1.753-1.819-3.517-2.785-5.243-1.834-3.279-1.391-4.925,2.265-6.023,4.924-1.479,9.935-2.706,14.96-3.8,30.128-6.578,60.617-8.123,91.349-6.654,15.365.735,30.644,1.963,45.653,5.507,12.065,2.848,23.119,8.156,33.9,14.106a18.222,18.222,0,0,1,2.057,1.543Z" transform="translate(-299.412 477.329)"/>
</svg>
